<mxfile host="65bd71144e">
    <diagram id="1rSqIE_ysCK_Y1EEZCLb" name="Page-1">
        <mxGraphModel dx="1386" dy="884" grid="0" gridSize="10" guides="1" tooltips="1" connect="1" arrows="1" fold="1" page="1" pageScale="1" pageWidth="827" pageHeight="1169" math="0" shadow="0">
            <root>
                <mxCell id="0"/>
                <mxCell id="1" parent="0"/>
                <mxCell id="2" value="" style="shape=image;verticalLabelPosition=bottom;labelBackgroundColor=default;verticalAlign=top;aspect=fixed;imageAspect=0;image=data:image/png,iVBORw0KGgoAAAANSUhEUgAAAYkAAANJCAYAAAD5qsAgAAAAAXNSR0IArs4c6QAAAARnQU1BAACxjwv8YQUAAAAJcEhZcwAADsMAAA7DAcdvqGQAAHPuSURBVHhe7d0JnE3l/wfwD8MYzDDDYBb7miV7ZMmaJUKRhAopKtqVfv20Uv/80k6FCgkpoyIijCV79uxjjWEwzMRgDGP+53vuc8Yx5pn1znLnft69Ts52l7n33Odznuc855x8ZYIqJYCIiCgZ+dW/REREt2BIEBGRFkOCiIi0GBJERKTFkCAiIq2MhUTBYAQFBaOgmswR8h5K+aoJIiLKCtqQKNXqFYyeOAPTpxvDt5MxemgXlFLL0PZpjH1zIO5QkxlW5xV8Pv1d9FCT6VG0+3MYO2ogaqlpIiJyvuTPk6gwDGPH1MeZbz/Gp8t3w7PyfXjqhd4ovuoVvP5TuFrJCSQkRhbH0kf+i1/VLCIiyj2Sr0lUKIVS0WFYYgTEVWPy4qFfMGfRdlzyUvvtUrh//sqNvfgyvTHic0et46v33sJoY/yN7o5FPd6cgdFPG6GjaiVfvdb/Ro0kqe7vYvrbr2DAe1MdNZiJRi2jjFqWlKyb+B6KoN4j/8NXU9VrjBmGejnaFkZElDckHxLrtiHMqx6eGjUQ9XyLmLOOLPgf/m/6EnP8ZsF44Jn7UOHwTxj5WH+8NPcSfJMcKqhYoyjmvNAfj722BGeqtkHfJmpBcipXQJG5z+ORx97FrxHBuOfBDmpBCmoOweNtgaWvP4FHhk7AJq/mGPAQG6KIiDIr+ZC4+gv+b9RUrLx+B577ZDK+/eJ/eKptLc2B6jaoVeE0NoX8ghNGtePiptXYHa0WKWHL/oe/LhlPe2w/TlwsAt8AtSA5B9biy03GE1zdjd3GExYtUVotSMGlq7hasCiCqtdG8atr8fWI/nhx+m61kIiIMkrfu+nUEsx6bxgee+IV/F9IJCr2ewX/6RysFtrUCUYpXEL0UTWdE45Owbhvw+DbdRjGf8vmJiIiZ0k2JCp2NQLhEdXMczXcrAlM23QV1Zq2ccyz2xmOMzBqBxXUdI64hBPLP8E7Lw7EI0P/h6Xxd+DxgZnue0VE5PaSDYnw2CKo1rYLHm/mOBeioG8HtK5VBBfPnXascJMV2H20NBr3ug9BxspFG7dEraw4fSGFczOK9/4fpn/+XzSX4ydX5VA7ERE5Q7IhcdWoOYz6MRLVHvkfvp0+A99+0h/VTi3Bh18ld+A6HHM+/wVHK/XG2G9n4POHiiM6+iquXlSLnaXZExjz3tNorSbt/v1pMqYdDcLjn0zG9G//i7s9/sLXU/9SS4mIKKOccj+JojXboFbkNvx1Jg7Fmw3HmKH+WPniK5hzTq2QBUr1/xgfNTiA10dMwBE1j4iInEt/4DrNiqB4hRZ4YMwETJ8+GeMfq4CjMydnaUDUGjoZH3X2Q9iqPxgQRERZiHemIyIiLSfUJIiIKK9iSBARkRZDgoiItBgSRESkxZAgIiIthgQREWkxJIiISCvXnSdRqpQ/6teri9KlS6F0qVLmtIyXMsYd8/xRtGhRtXbucvjIUYTM/QXff/8DIk6dUnOJyBkCypTBww8/hF4970Olijl6RVGtixcv4vSZSJw+fQZnzpxR/xrTanzb9h3mtCvJFSFRtmwwut7TCV26dEbTJo3VXNd16vRpTP9+FsZ9+KmaQ0SZMeKl5/DIw31RpnQa7i+Ty23YuAkLFy7Cgt8X4/hxJ94OOovkWEhUqVIZHdq3xd13t0XLFs3V3Lyl3d1dsHvPXjVFRBlRq+ZtCF26UE3lLavXrMXSpcuxZNlyHDx4SM3NXbI9JNq1bYOBA/qjY4f2ak7e9duCRXh8yNNqiogy4utJX+Derp3VVN71x5JlmDptBkKXr1BzcodsC4mWLZoZ4fCw8WXfo+a4h4DgymqMiDIiIjx37mFnld8W/G6ExfdGLWOdmpOzsjwk7mjcEAMefRgP9LpPzXEvDAmizHG3kLDMCfkF0777Hn9t2qLm5IwsC4nbalTHkCceQ7++D6o57okhQZQ57hoSlpmzfsSkyd9i7779ak72ypLzJO5q2RzfTZ3s9gFBRJRZUo5KeSrlak5wekjcf183/DT7e5QvX07NcW8+Pt5qjIjSy9s7d54Tld2kPJVyVcrX7ObUkHji8UH4cgLPDbALCgpUY0SUXgEBAWqMhJSvUs5mJ6eFxJcTPsHot19XU2QJCmRIEGVUYEAZNUYWKWelvM0uTgmJzRtXG9Wg7mqK7AIDuSdElFGBrEkkS8pbKXezQ6ZDYs/OzQgODlJTlBSbm4gyLiCQNQkdKXel/M1qmeoC+9u8OWjcqKGaouRs27YDnbu65zkiRJn14w/T0equFmoq444cOYIVKxxnMg8cOND8Ny2sx1SsWNEc0urChQsICwtDfHw88udP/7749evX4eHhgWrVqsHHx0fNTd6mzVtwb/cH1JTzZTgkPvvkAzzYu5eaopTcXr+Jy135kSinFS1aBPv3bDcLy8xq27ZtYoH/1ltv4c033zTHk5Iwefvtt811ZTypNm3aYMCAAea/utD4999/sX//ftSpUweFCxdWc9Pv8uXL2LlzJ6pXr47ixYurucn78acQPPv8y2rKuTLU3PTcs0+7XUDIRiMbj51sRFOnTk12Y7Jr26a1GiOitOrU8e4MBYT1u7T/NlP7jQpZv1KlSrf8pu1hIOXAoEGDzEH3nBIQ9evXxwcffIAiRYogX7586R7kcfJ4eR55vtRIeSzlclZId0jItZf+M3KEmnIPEg6yJ2JtfLKByDyZPnr0qLlhJQ0QuyZ3NFJjRJRWdzZtosbSZ9q0aYkFufxuUyO/Y1lP1hcSClOmTMHhw4eRkJBg/ivD8uXLzaYqWS5hYQWK3ZUrV1CoUCFERESYtRWpDWSEPE4eL88jzyfPmxopl7Pi2njpCgm5ZO/od1Lu5hq7bQL63x5opGFldH1lIQ6r+Tqxq0ehYb5emHlczbgWi8PrZ+LDp7ui1v+ldoGraCx8Oh8afrxVTVvW4V0jjRt+kHS+4fhM9DKW9ZoVoWakTjYEqV7KxiQbkkzLYFVhZcNJurHYdbmno3lpdCJKG/m9ZNeVX6XQl9+3kKYoCQT5TVu1BvmdS/AIKbglQOQx1mAXFxcHLy8vnD9/Xs3JHHkeeT553h9//BHh4Snff0LKZymnnSldIfH44IEpd0mLXogRvdei6/yTSLi6FsMwCsOnpBQTWzHhjW9wUk2JdR/3wod/wkhpL+y5pmbqRIZi7roGwHehxjPdautHIQiNVRPK4SUzsDad3eqsA12y0QhrgxIyTzYUXRunKFGiBIY/PVRNEVFq5Pciv5u0kFq8FOYp1eZTI79fCQf5V55HmnysHUL5jUt4WLUN+b1bNQt7WZDV9uzZgz59+qip5En5LOW0M6U5JORqrqlei2mvUej3HY5+Eq4FAtBlyDDE/r4O5j77pncR2GwC9si4cnjyGGx56kMMV9Oi2csLMP7lfmheVs1IQfSfRk3l6QkY02wGQrepmYlewn8HzUToOntKbMXcz7yMDTB910Bp3bp1YkAkRzagpHsUSfV9qDc6d+qgpohIR34n8ntJC6ndy+9PCnP5V6YzSn7D1vMI2TmUWoOEgcyTQJByQMJCXie133xOkXJaymtnSXNIyOW+082rMHx/Ouxocmr8Evb8Phg1zQWG4zMx4ucuGNO7kpqRXhFYOGsLutzRDM3vaY5x85M2Tfmh64PDsHD6QkSrOdgWihkN+qNdQOKcNFm5cqUac9Qiktt7SMvG+fRTQ9QYEemk9DuRQlr25mVIaccto+zBYLUOyO9fdhRlvjXkREDUrFkTs2fPVlMpy1B5rZGmkJAbBqXpfhBVa2Lw5PGYaZaX0dg6awbmmguEF3x9vdR4NBa+9w2avzcYGY0IHFiAGWFGgV8f8L2rC3p9sSBJ01IULldth/5bFyLU7H0ai9AfJ6DLI12MfAmVGRkiYSB7G0lDQQ5gp0YOYL/2atZ0UyPKC+T3kVJHD6sJSAb7zpszWc3LcmBaXk9qEVJ7kGYoWZZSE5OnpydiY2NRrFgxNSdz5Hnk+eR5H3zwQQQHB6slKZPyWsptZ0hTSMgd5dLEvyf+OykQMzrkQ75q/TGjQAP0NGoKSYMgdskYjPEfg2FGAZ9Rh5fPxMlH26GBTPg2R7t73sXCP+0pcRgR0cbrP3sS38w36jKxaxH6Uz+0a2YFVdrJXoRFwiG5WoP0nU6LZ595Cl3u6aSmiMgivwv5feQGEgRWs5OQmkNafuNWTyS5MKGESkbPk5DHyePleaweU+mV5nI7FamGhNyTOj3dqip1G4cFYQlICFuAMbdF43Czmrj5MHEEFk7/EOtGN0dhs09wc4wy6hv9y+XDu+vVKqnairlfhGLriw1Vv2I/9JoCfPhz6I2mJaVSh/7wmhWKdb/PxMIhvdAu/RlhbjDW3kVyZFl6qp/ffv0lr0lDZCO/B/ldpCajzTwZeZw0N0lQyGOliSmlGoSdnPy2bds2vPzyy7h06ZLZjTa9gzxOHi/PI8+XEVJuS/mdWamecS03u+jYob2aSqtYRG+bgWG9Q9Fr+Qz0NA9CG/OMEvxGk5NFuquOQ6VjIehnO1gdMasXAg+MQMLryVSZtn2IhoOAb7a+5KhJiMi5eLzUQnQ58zV6+tufMxpzH2uHMVsDMeynBRhc1XjF0fkwrupJhPRNe0EttQdJdqnm2lltmBnRul0n7NsXpqaI3FONGtWwMnSxmkqZ/A6tYxHWjptMy3wpxKVAt6+T3LyUdviSI49Nb8hk52U5UvLHkmV4dOATaipjUgyJChXKY8PadB4ckvMQyo3CyUGDMeKVl9DzNhUK0rvpFV+Ehg67cfDalP6Q2PpBQ4zyD8GCQfaGrFiEvlYJE27fahT+h296ztjlo1Dpg0pYu9BxDCQjIWGRDU3aQitUqJC4AWbGuI8+xbgPeQ8Ock8jXnoOI158Tk1RVmjavA2OHv1HTaVfiiEx8NH+eP//RqspyirTv5+Fl0f+V00RuYcPxr6LRx7uq6Yoq7z6n9cx9bsZair9UqwHtWuXfSeKuDP5ocz75SeeR0FuQbZz2d4ZENkjs+W4tiYhB5K2bl6rpii7zPrhJ4z/YiIOHjyk5hDlDXKpDTmTOq0nypHzNGjUHCcj0n4pIjsPbx+/G/28bLp362JehZGy1+11auP+HveiXPlyZje4yMhIXL6c5NoiRC6iRAk/3N2+HR4b9CjefuM1NLmjsVpC2Wl/WBj+3rlLTaWPtibhrJt9UOZt2LgJf65egxMnTuLkyQicOHnSHL9wIUatQZSzfHy8zbswyj3d5Za9Mn5XyxZo2oShkBus+nMNHnzoETWVPsmGhKT/7r+z/rZ4RESUPWrd3gjnzkWpqbRL9sB1o4aJZx8QEVEekNFyPdmQKF26lBojIqK8IKPlevIhUYohQUSUl2S0XE82JEqV8ldjRESUF2S0XGdzExGRG3Bqc1MpNjcREeUpGS3XWZMgInIDTj5wzWMSRER5SUbL9WRDomjRomqMiIjygoyW68mGBBERkUj2shz1Br+rxoiIKK/Y/k3671vDmgQREWkxJIiISIshQUREWgwJIiLSYkgQEZEWQ4KIiLQYEkREpMWQICIiLYYEERFpMSSIiEiLIUFERFoMCSIi0mJIEBGRFkOCiIi0GBJERKTFkCAiIi2GBBERaTEkiIhIK1eFRNUaFdC23o2hSbBaYAioVO6WeURElLVyzz2uO3bG/JZ+8FSTpthTmPRVKI417oCRLf3hLfOuRSHknUWYZK5AuUVAk+Z4tYkfcHI/3g8JQ4SaT+Q83mjbrj4eaFgG5b094Sm7uNfjERNzHtu37MGk0KPc7lKRkXtcZ21IlKiGIW1LoYSaxLUY7N57DPP2RakZNiVuwxu9q6BcQTXt6YXyvp6IiTwP+BdzBITpPBa9sQAfq6mcFHB7AwxrWxn1S6gN1hB36Ty2bduJCYtcd4MN6NIZ0+40CnwRsRedvtjqGE9UF5+Mqo2aZqLHYPm0+bjStS86+8t0HLYtDMHI9TJO5CQlKuDVfk3RtrSHmnGruNNH8dHMtVh+Ts3IxZoYv7GRxk6Vt/F7ObBxHYYtPKGWZK2MhISHt4/fW2o8UUDD9mosc2re2wIv1i2NSgG+jiGoNJrUrYpHmlVAjaJx2HPgX6OIUS5HYuXmMMzfqIZ9Cbi9biDKFy90c+0CV3BgeRhyugwKaNkOE7pXRKUiHvDIp2YaPAoWQnC5cuhQ8RpWbYu88fe5kJgwHzRr7Y8S8ncZH36BVYewzbHIoU1dDKtaBObPNfIY3loUjgLlK6FRGU94xERi3pLD2HPZXJPICYLwwhPN0aGUbHHxiDh6GHMWbMTIOX9h/YkriPcphkp+xo5aUV80MbbLgxvCEe54YC5VFy/3KY/gAsZoPg+UKO19628si5zaGqrG0i6LaxJl0KKcFzwLF0f9YD9UqOCPmkbtwBIXF6/GNAp4OPbQrxm1hwU7se2aMR57HsuTq4lkq9sw9rUGqO8l40bYrd+Bnw5eBPyC0LtNNdQsIvNjsfHnn/F60p1wFzHk6b7oFSBj8diz4kc8b9u2eg3qhSGVHN/jP1vn44mfXTEKyVUEdO6Myc2lKdqopf6xGCNX37q9mTttHcsYe+bxOLB2IYYtys3bpL0mboiLxKwxSzBVTWal3NfclIyA2xvj9R7VUPXm6kGq4o7twhOTd+SSJpwmmPxOFZSX0ciD6PTZRnOuydigFxsbtIjYFYoBs08ZY95o27kJBjYsgwAzWIy/59J5/LV+Ld5Z4Qi8xII39hRCtnmik1RF405h0nuhCEl8vL/xeEd1Wx6/ZsVavL/eFphGlXxIj7roVM4b3rKXIu21kccx7ee1mGfuWtnCzagBhFzwQ6cKxrpmEBvV3k22aq/t74g5vBW9puw1x4EKGP1KczQx2/+M8P5kAT42qvc3guPm5sCqdzbHyDZlUd6ocZliY7Btyw58bDbH2Z7rtPE5jnd8jlZA3XjdMnjjxXZo4WuMJv28KY/zxgvPdjObMm/eDm/V+ZH78UI1Y+M2tpEBxjaSm5t7Xam5KWt7N0mh9UhXhLzRF4vfcQyTu1VA+XQERNTho9h2CfAsZxRwQ29+rvmv3Y8JvYzAUetmn/M4F6tG/cvhk84VYO50i0WL0OmNWebgCAhjg7i/NV5sfiMghGeRYmjRrh3GtrxxtMXkVQa97jQ2Hts3c+PxN9pj5fFtu9gfb1TJH26KXpVUQIj8HvAuXQHDHmmHXokHhhTjfZvrWq9TwNMo0Bvh1SpqetEpHLjuGPUuVQadHaNAlXIob71kxCnMSqH9V/buxnYxvm8rIISXN+o3b4rR9wcZE0dxMErVJot5o5c5Uhe11HuV121rjgWhTDFzBFFnHZ8puQvj921uD0ZhGqYPCLEoTDVfFyt+Y3vNpTYuXIRebxnlxFsh2RYQGZV1IVGjMSY82Ry9qhUzCqJ4s2lJBk8vzyTHGPTiIvbi+SlrMXnPeWPKAwHBSZ/LC1XrGa/zSjKFYJbai1m7zhubrfBEzebNMe2tXpg2uCUGNlAHfC0lGmNAvWKOv/mSUahOmY9hPx/FP9J0Zsyt37gu6suo3bVY/HP4GDYejcG5Ks0xrIF6fPQxTDIfH4Y9RnCaj2/eyCxI6/duZOxtOQrjiD1bMfKTRfh4vTomUqQMet9TwVx2gzSTbcSwT0IxKcxKPG9UqatGsRV/hasC3LsEWtRzjNZv7JcYiAeO7E1hb602Xm0j1X9DbBTm/bwIA6ZsxZpz8pweKF+vLoYYY1OPyXdr8CqKavIdNvdHOWsD8S6GuyS0jNAMMLfUOBw9elRGyG0UVJ1CYhGx2pyht974vci/np5I8iukTMiakChh7PXfb+wBGHvOUUf34v3PfkS3Mcaw4BTSfDThehQW/bAVETWaYKRRyFpiju7AE/JcxtBp4iYsP20U1d5lMPDhJmii1skO235dgNGrTyHCkRTGJ+mJgArl0Pf+zpj/Ymv0tc7naOKPqupTPrAtFFMPx+DA1rVYdDjWEXb5CzqarRLFYs3sn/HElNV4fcZG7KlrFcpx2LZxNULMx28yn8fkbeyZS3NUoNq9jz2FebP2Yts54/NbuAPbox2z/UqWcYxYjIL7z4UHceDcKYQcvNGBoITvbWrMKMAPRqkg9EL52+TxxuuUUa9jfD+7jR+lllHzsQr7iH2rMWFrFCIO78U7O9Rz5i8KI/+AsBgVNIURYKRl20rFHcFi8ka5usZUYGHHvOsXcTC1goLymKuIM2u0XkbN1Jyhd6e3oydlXFzay5kcIs1NIW/1xWJj53JCF6lV515ZEhKdu9ZE/SKONsTnv9mquqR5Y1izoDQnfFz4CUw4540h7SuifAGjoNluFHzG3rN3pdp4wWpiCQ/D++PXYVGkUavwr4IBXW4UL9lh4x+hGDBmPkb+EYaN4Uahr5pnPH2DMFCaeIzx+sWtPr1xiFE7zSJk+s+O4PxoJeapeQ5xuLBPjRpa+FptVEatoeONpraxta2/1fjxNC+LgMTJMhii1ln8jmrHF0aYOJpz0iH0FA6qEAwoUwEBRvg7qv6G05EISamrYRlVsBsC6nVLfN+L2/g7akXG/0tI7hw0gtasFRk1xcDbcFcZ+XvjcUDVMMoHVkMv6zM4HwMejXA3J3DM3NHxRIVKVlto8jpXUzsYMRezpadQxtVFv4aqSdnYuazasDYGOhbkSlkSEm2DjR+1sacZ+qutOaJ5E7RLbLhP3T/Hdhj/r4Z60i86LhKLQrbiY2PPPUYKyzbNMDCxeekEPv7TUUOpWrWWY1ZWCw6ynRUeg22rN+H1iUah/9laLDcCy1SkDNo5uWHUama7eYhLDCfT9eTWMYbYeGOfLL12YMNJ9ff4l0LfO221okOb0n5g8Foy70cG8w2FYc9Zx2v4Fa+IchJq189je+i/juf3NT5HP0esRJ06lst//OR8pzB1r6P26Vet/q3H8BQ5/vWEHLSWHYy9O7idOFGWhEQJ6QJq7PWtSdzTLINXm6j26TRRe91WW3T0v5hl/BOxeiNmHjY2F09/9Lq/tqzosPUUjkqzurG3nC2aNMCrvZqbwzCjipvo3FG8bzWnGEr6lcO2f62i2VOa2BO17dEBk4d3xeTBTdTB2eQdvGQ9Wzz+2bjQUftQwxNTluAJoybz+vooXLQOK1w7j/lf3Fin25iFeGGK8bhbaixpMyuxyakYWtZXf4CxA7B9kWNU618jvNRoVNhq2/sxBuN9v2D8O+w3x/JFkRcdIwF+jqa3c+cw7+Ax/COtWV5+qGq+bDwiTvJ4hDuKWLQDoebOl9SmO2HaI43RvYajTaJqjWoY2Ler6v5qOHcc03J191exAzO3RCFGdu6ux+HAll3Z0v01o7IkJJJzRfZ4k+xJWpLOj4s9j4PJdmSIQcivu7DtfDwu2h6f7YwgsPaiA2q3xRutpEbhjfq1a+ON+jcuLXI26hiwMTKxl1DVWi3NHkVVGzTGA7X9Ub50MZQvWdixUGPbprPqtTxQ9U7jtVqWQQD80KRVS4wd3EH1EjqFecfUD8PTD90edbyO1Hj69m2Ljwe3xgs1HIvTbcWJxCYnb6t31elTqV8WJfTG4/xqNsMnXaqgqvEzrt+oMT55pDPGDrot8QB4xKGYm9qQ/zm22/ibj2LbGfUE5lZ6EUfTfx4Q5Qkn8PH3G7D8tCMoAqpVw7D+nc3mywn9G6NvTccVGeKiYxFTogJGv9E149t7NnH73k3npI25mDdaJDYJncLHX4TcvDf5xSFH4XnpFCbb58vw3hJMklqIsYccIev4FkdfeRpxbi9GjvsRD023pUiDMqggNc2YbNqDOLgWE7aq3k0FjL/z7uYYPbQbxvapa/zNjoI0Lvoo5sve9rlNmLZdretbDkMGdcMEdVBfakzb1m7GchnVSfpaHdth2judMfrucggoID2+ypq9o7b9tNk8NiM8SzheZ/HQ1hhY0xueBYqilnngOSN23WhyMsVjz960nCG4C++vkOZB4YmadzbBhHeMz6iH42RD7zJBaGEuM2xXNUFTDI7tcDwqZJ+xt2WOGYzaZIqfE+VtUksfv9DYpo7hwHlbE6ucC3Q+yjxn6ImPjiBCeg0WKIbOfXJ/ULiKLAmJ5eHGLz6/H9r1uLG3eDNv9OpRwWzfjgo/mkIzSBi2y96Dpz8699L1AAjCC3eVMQ+IHziw2zErG2z8eQFeWHgQ2yJvPiYQFxuLf8L24qOpa2G1yGz8eSU+WnsKEYkFobHepfNYvjA02bNHk5LXGr36BP65ZCusr8WZrzN6/EbV/mrsbX22GiFh5xFjdq91kNfZuHo1nvg14+cX3GhyMsRFYVsa9+gjVodi2G9Hk/yo48zvfMIkOUnQshcHVS8saWf886AaXxuJY+qFY6Ii2c7s9mKwPHQ1ho0zdjhlL1zOR3rrR/QatwjvmBf324phsw86upfn8qBwpd5NWXPGtXSBHdLA7OEkXWAn/mz1cJJlFTDk/oboJbv+Ri1ikhQWKfWSqdEEk/tUQfkC8Wb//9GzwnBALUJwNbzRu4Fj793Y03j9k7Xs/ULk7hLLDGNcLukzewE+tvUYzHm8LIeDnEwnZ0NLs4r0uLH2bq3rMckJViGLMCENX15Ay9b4pF0Q/NSlJqzn8vRUbeQxRth8nUrYEJH7yNVB4VohkXVXgT17Agt3XUCRksVR3rcwChfMDw8PY7giZxMfwJezVuPH42rdVMT8cxRzDlxBqZLeCCh247mkKeXvHX9j9LebsYZXHSUiy9lwzI8ogta1SqA4ruBY2EmslhNvc4VTOOddFk2CCsMzQa6ZtgXvhV1Qy7JW7rsKLBFRTqpRDd0Rhnm5qrkp5+S+C/wREeWkfQyIzGJIEBGRFkOCiIi0GBJERKTFkCAiIi2GBBERaTEkiIhIiyFBRERaDAkiItJiSBARkRZDgoiItBgSRESkxZAgIiIthgQREWkxJIiISIshQUREWgwJIiLSYkgQEZFWsrcvXbV8ES5fvoyEhFsWERGRi8mXLx8KFy6MVm07qzlpl2xIbFy3ArGxsQwJIqI8QELCy8sLTZq1UXPSLtmQOHJwNwOCiCgPkaCoWKWWmkq7ZEMiIvyQGiMiorwiILiyGks7HrgmIiIthgQREWkxJIiISIshQUREWgwJIiLSYkgQEZEWQ4KIiLQYEkREpMWQICIiLYYEERFpMSSIiEiLIUFERFoMCSIi0mJIEBGRFkOCiIi0GBJERKTFkCAiIi2GBBERaTEkiIhIiyFBRERaDAkiItJiSBARkRZDgoiItBgSRESkxZAgIiIthgQREWkxJIiISIshQUREWgwJIiLSYkgQEZEWQ4KIiLQYEkREpMWQICIiLYYEERFpMSSIiEiLIUFERFoMCSIi0mJIEBGRFkOCiIi0GBJERKTFkCAiIi2GBBERaTEkiIhIiyFBRERaDAmiPOz48eMYN24c6tevj59++knNJUo7hgRRHnP9+nVs374dTz/9NFq0aIH/+7//w7Fjx9RSovTJVyaoUoIaTxQRfkiNkbNt2LABXbp0UVPpU65cOVSuXBlFixZFw4YNzb3Dxo0bw8fHR63hfmJjY/Hf//4XU6dOVXPSx/r8KlWqhHr16uHOO+80P+P8+V1v/+nKlSv4448/MHHiRKxbt07NveGrr75C79691RS5o4Dgymos7RgSOUT29o4cOYL3338fISEhau7N/Pz8ULt2bRQsWBBXr17Frl27EBUVpZY6yDoDBw7Ek08+CX9/fzXXPV26dAm//fYb3nvvPe2ec926dVGyZElz/OzZs9ixY4c5btesWTO8/PLLuOuuu1wqLCQwly9fjvLly2Pv3r0YPXr0TZ8DQ4IYEi7oxIkTGDJkyE17fv369TN/4L6+vmqOgwTLvn378Pnnn2P27NlqrkOjRo3wwQcfmHvD7iwhIQFTpkwxC3k7CeJWrVrdUuhfuHAB8+fPx6effooDBw6ouQ4jR47Es88+Cy8vLzXHdcTHx5th+cknn6g5DAnKWEjwmEQOK1GiBGrUqKGmHDw9PZMtmKSAq1mzJj777DOzUPP29lZLgM2bN5sF4/79+9Wc3OfUqVP43//+Z+7xpsf3339vNtOlRb58+czaV1KFCxdOtlYgTU0SynPmzEHHjh3VXIexY8eaTTfXrl1Tc1yHh4eH29csyTkYEjlMwiAwMFBNpU2BAgXw0EMP4cUXX1RzHCQopPkqOjpazcldVq1aZQZFepw5cwa///67mkobaU6qU6eOmkobOd7z9ttvmzUyu48++ghLlixRU66FIUHOwJBwURIUDz74IFq2bKnmOPz6669YvXq1mso9JLikWSe9pAaxaNEiNZW1qlWrhocfflhNOcTExGDWrFm5NniJshpDwoWVLl3a7J2T1Pr16xEXF6emcp4cJ5g3bx4WLFig5qTNyZMnMXnyZDWV9aSpSmoS0rvJbtOmTTh69KiaInIvDAkXJu3Ot912m5q64eDBg2ZPn9xi7dq1ZrNNesj7l8dkd61Imv4qVqyophykiezQIXbmIPfEkHBxwcHBauwGOdAqPaFygz179pht/ek5mUv6+0+aNAnffvutmpN95AC37jMlckcMCReX3IFg6fUkxyxykjQxyfEEOX9DDqinlRwDkB5Q0gU4J0hA6T5TInfEkHBxERERauwG66zs5Mj1e6T3T3JD69atbzlXQMg8WZbcY2RI2j01MjLSLOTlwPrOnTvVXAc5M1r21O2Pl7778piVK1fivvvuu6lvv0XOUrc/RoasuBaRnDeR9CC1fJ5yglp6SHOZnP08fPhwdOrUKfE9V6hQAffee6/5+cjnltEairzPuXPnYvDgweaZ9/LcVatWxWOPPWaeUJjebsYWCUlp4vvPf/5jvk95v9Z7l79DulnLCXvpeX55r9LFWJ7vpZdeSnys1HblO7///vvN53/00Ufx999/m8so92BIuDApzJJefkH2eKVAl+MVyZECWc40luMWr7zyipqbMil8pGCQE/mk6Si1vWo5k7x48eJmF115jerVq6slQNOmTfHaa6/hjTfeSBwkAKTmIe3+3bp1M+clPenr8ccfv+kxMsilNJxNrnm0ceNGNeUg7zmtryUFnxykb9u2Lfr27Wue+dynTx+z19l3331nFohSEEoQyt8tBWN6jndIIS4F7t13340nnngCly9fNj9PeX759/Tp0xgwYIDZS0ua+tJKPn/5u7t27YoePXogNDQUHTp0wPTp083eXXJSoWwz0gT4wAMPmAW+HNDXkc9BXl/eU4MGDTB06NCbtlUJCrnwYM+ePc2u0UI6NkiI8PhPLiNnXCcdKHt98MEHCSVKlEgcjMI1wfjxq6V6ISEhCcYe7k2Pff755xMuXryo1khZVFRUwiOPPJL42FatWiWEhYWppckz9goTnnzyyZtec/369WrprYxASjAKlcR10/q3/fjjj2l+jaTkb5C/Jb2PP3PmzE2fhww1a9ZMMAoxtUbKjIIxwajdJH4n/fv3TzAKbbXUQdaR56tXr17iawwaNMj8LlIj36tRAzEfI4//5ZdfEuLj49VSB6PwTTAK9lu2CxnkM9Uxag+J78kIhwRjh0AtuWH37t3mMuv57rnnnoSjR4+qpQ5GzSjBCJWEli1bJq5nH+T7P3/+fIIRkskul8GoIalnI2dLrrxPbWBNwkX99ddf5lnX0oZvke6bTz31FIoUKaLmpExO5CtVqpSaShtpxkra+ycvkOYhuWxF0m66sgcs13JKC6mFjBkzJvE7MULils9XutnK80mNwiK1gOQuyGcnzVLSHfjjjz82a3LvvvsuunfvfstZ5IUKFUr2RMuU/PPPP+bzWZ0L5L3Za38W6Uknz22R5rKkn5fUYKUmK+e2GGFtNn8lJb3dli1bZp4kKbUiqWlYypQpYzZxUe7BkHAx0txg7BGaTQ329n5pL5ZCLrkftzNJIadrynJVUkgaNTCzALbIhRPlWljDhg1LcycAaY6z9+KyB7idPF+TJk3UlIM00ekYO4Awag2J3Yjlu5fvW76L5OhOtNSRe07YjysZNRY1djPrPBIpyC3h4eG3nJMj3YhlZ8KoFdwUhkKOb82YMcNsapLPQJrlfvjhB7z++uvmZVGk04IcY6HcgyGRy0kBYVTPzWsyyXWEpC1aagtWYVSrVi1MmDABX3/99S0ngVHypFCTy33IcRa554Jc7dW6Eq/spcu1nBYuXIhBgwalq5dY0r36lGppUoDa6QpmcfjwYbNLsISOFNByLCO196U70TI5Evr240wpXc5DCn/73yXHROT4g468D/slUuSguBzPkLPbLfJ6EtJy7EOWJXeNLco5/DZyIXsPIPkByUFTaaKQg4C7d+82C4oRI0Zg6dKlZkEnTQBpbWJyV/beUbKnK00ncgBWrqYrha8cpJXmHDkYK1fZlRqZbk9dR/aKpYlJClwJn6S1BTt5H2m5vpRczVUOhFvdiOUgunQkSI3uRMvk3H777Wazmrxv6TAgB691JNyk4M8oeW6pMaT3s6Wcw5DIhaRAk7ZaaauWQfay7KQff5UqVcxqeXr2dN2ZNB1Zn6f0Mkp6IT8ptKR5Jr3HaOwk0OUKvXIJD+ni6ozglkvJL168WE05jgs4+yZT8j5lB0TetzRZZuYzSI08tyteet2dMSRyIdlTk5qDFFoySLfApAcA5V4BcgCQ0kYuH259nrI3++abb5pXfrXIOQ0SJFl5ORNpOpQuqtI0KDWNpOeQJEfWsXfJlVpkTuyFS3dr2XGR8zKkeyy5D4aEC5A9vWeeecZsarDIMQk5yCcXwaP0a968uXlsx07OAZCCUApzZ5JzAqRpUJqi5H4gchBamlzScgxJDobb6U6SzArSo0oOaEugyc2spDedfG5Ja2GUtzEkXISc8Sv3crbv/cpBQOnxkpsu5ucqZG/8kUceuaWGJp+ns2pocnBcOhXIfbPlGJLcl3zr1q3mJdPlzPLUmqMkXNJzzStnkTOkpceRdYxF7pAoXVrl7GipSciJkuQ+GBIuJDv3ft1BVtXQJLS//PJLs8lQutXKQeE///zTDAoJ+8w0F6XUkyiz7Gdzy61b5WD+mjVrzKZNqQGx15F74rfuQrJj79fdOLuGJieQyaU2Ro0aZfaQkusoSbA762CznE+RFTsEcqxEOkhIoAk5l0HOXbCfE0HuiSHhYpy59yuhw71D59XQ5FwWOflOuiVLQMiB8LR2Q01Oct+PhERK51RkhDSLyRnacpKmdIOVW+DKAf7M1Hgo72AJ4YKctfcrl3Cw7ylKU4Y7Nls5o4YmvX+kcLXOZ2jfvv1NJ4xlhHw/SQ9ub9u2zTxD2lmkiUnOC7HuI96uXTsemKabMCRclG7vd/r06Rku6OVEvXPnzqkp96Krock1jeSyHamRcwzktrEWOdjr6emppjJODnbbz4aW2op0QXVWmEszk1wHzCInyznjfVPewZDIheQs29QKAd3erxwwTc/xiaRdKuXkrZTIRezknIKMkhDKyP23Mxte8pmmJrkamnQBlT3t1Gpo0hPJfrMiuVxFWl7TIjWR5D6XGjVqmBfMs5MdAQl0Z5CahP1vk/H03OMio98nuQ6GRC4kF02TQiY1ur1fueeD7HGmRdIrusq1/ZMrEKUpSsJBnlv2ku3SU4DLvSySPr/0/JHr9qQk6d3ipJumXCQurcdh5DNNC10NTS7ZkZ7CU67qqntNucGSXIfLfjKd/RpIstxqtpLPWu5LkbQ2IScDpnTfBXmvSWtAMp3azoe87+RuPCXke5PPwn5yn1zSxPpcZLk0e1LewpDIYbInl7QAlD3QtHZ1TG7vVwoY6ami+7HbyQUC7W3QcskK6fIoB0jlPche4q5du8w7rEmhLM0vSa9JJJeLloJNComkBVPSe0ZLl8oVK1Yk/n3SG2jatGm44447zGlL0vtMy6UprFqOfGbSj79gwYLm2elJyV550quqpvXzTOn4hNTSdEGR9FpMUgORHk729yHBNnPmTPOmPvI32I83yHcln6GsL2fYS5ha5HwF+yW6hRwclwsQ2j9LizyPXBZEvkc7+QylBiKBJAEjf4tc7dZ+XEp2MuQSHXLswwoUqSXJDoJcmlwuNmjfsZDjI/IYeU0JLrnJUkpkG0lP2FLOY0jkMCkMkt5BTH5oaWkHtyS39yuFlJz4lFwhYle2bFnzbnB2UhhKcMh1duRieK1atTILL7kukfSXT0pqAdIsYt2u1N7MIiEhy+ykB9A999xjXvFThs6dO5vXorKT0LOHkRRSck0ruZOZvB85sUuu1pr0suVSsO3YseOWy3RLoScFc1okV0OT53vrrbfMwlcKxKTk/SZtFpLwlHnW3ykhImctv/POO2aI27vFyh64nNUs68vVW+UAskWudSTdUeUS4XbyWffq1cv8/CS85bllO5CT9+RvlR5vdrLzIJ+dnL8hgSE7AHIMQg6y28m2I/PkeSXQ5H3LWddyd0D5DIKCgtSajlqNvFf5jiW05Tuxk2C3B6V8D3L8hlyHh7eP31tqPNGIl55TY5RVpOCWvTK5SU3SNn7p4ih7aFLwSCGdWjdV2fuVGsG///5rntFrkYOS0q1RCk0pPKXpQgpt+/PJuFwFNOlj7eRaR3JSmFWQyzEPq1lBmkHkngHS3VO6UUphkfT9yp6n3PrSXrORwkP2+KWwlD33pIV9sWLFzMJRQs5q85ZLpksBI72Gxo4de1PtScheqlzyQmo8sq6dXN5CCjH5G9JyaQs5q1jet/yd9ueSpha5SKCEu/zt8j7lQK9caFEKU9mrtl9KQ967fJcyyOckZ2BLGEjPJSkw7U1O8nxWGCS9cKO8hnRLlUJdvifZu7dIk5s0E0lwyucqNZEXXnjB/KzkPA2L3INCahcSUhIU8nlY2458dlYTl0WeS3ZWJLjGjx9vBod8J/I9Jj3uJa8nJ+BJwAr5u+X4lXwX9qZP+dwkNORKtlL7ymv3Jsntxn30qRpLh+RuV0dZR26jafzQ0z0Yhb16Bj2jUDBvKZnc461BbiVq/FDVI24wCp2EefPmJfTu3du89aVRmJq31Vy6dKm5zM4IBPP2lJMnT77l9pw6cmtQI2gSjNqB+fzy3EaBa97OU8eokST8+eefCQ8//LD5GHmsUcgmGIGm1kgwb4Uqt8RM7m9NadB9Dnby3r766qtkH28f7N+N3GL0m2++STBqZ+aylD5HIzjN26Van4cRGil+HhYjiBKMWkPCfffdl3ibUnk9mSfLLPK+5Jak8n3JtpHScyf9/mWQcbkdq/xNdvJdGuFuriPvwQjym26jKq9n/3xSGmRdyj7JlfepDfnkfyovEkWE80bkRER5TUBw+m9MxmMSRESkxZAgIiIthgQREWkxJIiISIshQUREWgwJIiLSYkgQEZEWQ4KIiLQYEkREpMWQICIiLYYEERFpMSSIiEiLIUFERFoMCSIi0mJIEBGRFkOCiIi0GBJERKTFkCAiIi2GBBERaTEkiIhIiyFBRERaDAkiItJiSBARkRZDgoiItBgSRESkxZAgIiIthgQREWkxJIiISIshQUREWgwJIiLSYkgQEZEWQ4KIiLQYEkREpMWQICIiLYYEERFpMSSIiEiLIUFERFoMCSIi0mJIEBGRVr4yQZUS1HiiiPBDaoyyy79RUYg5fx5XYmNx7epVNZfINRUoWBCFvLzgXawYivv5qbmU0wKCK6uxtGNI5DAJh7OnT6OgpycKFy0KT+OH5eHhgXz58qk1iFxLQkIC4uPjEWfs8Fy+eBFX4+JQsnRphkUukJGQYHNTDjp94gSiz56Fr78/SpYpgyLe3ihQoAADglyabL+yHcv2LNu1bN+yncv2Tq6HIZFD5Adz5coV+AcGwqtwYTWXKO+R7Vu2c9neGRSuhyGRA6SJ6fKlSyhhVMFZayB3INu5bO+y3cv2T66DIZED5BiEj58fA4Lcimzvst3L9k+ugyGRzWQvSg5Ss4mJ3JFs97L9szbhOhgS2Uy6uUovJiJ3Jdu//A7INTAkspmcByHdXInclWz/8jsg18CQyGZyopycB0HkrmT75wmjroMhkQN4wJrcGbd/18KQICIiLYYEERFpMSSIiEiLIUFERFoMCSIi0mJIEBGRFkOCiIi0eNOhbLZ/506UrZz+G3+4qsiV4zF+eSn0easPaqp5iFyF8eN3oO7w4Wjl75gVs28xZi/4C8fOXwMKeCGwTlc82P12+CXuxsTi2MoQzF0Thqg4YxXfamj/UB80CyhgLjVf5+/K6F79JBauPwbf1sPxEH4wX7v7Y4HYM2cVwoznLlCkHO54qD86lbed9R79N+b9uAA7TsTiWv4C8KvcHg8+1AyB5lNHYtX48dhxWy80igjFskNRMJ4F/nV7oP+9lRC5eAZCtp5E7LUC8ApqiF6PdkE121NH/T0PP/6+AycvyWsHomGP/uhSw1stdV/HDx1C9Tp11BRlF950iFxTxGJ8M2sdrtXuj+dGjMDQXnWBHSGYuOCwWkFCYBq+WRmJsvcOxYgRQ9GlzDEsnjQbW+xXdzi3EQv3l0L7+3uhU01fNXMPFs45icoPDsOIJ/ugYbFjWDfzD4RdV4tjt2DGZyHY7dMRg43Xfu6x9vA/sRgTf/rbCIMbItcuxj9VemLYi89hcIdKiNlmvL+PvsLCK3eg/1PG4x5tjlLG68/4+cbjYvfMxsSQ3fBqKn/Xc+hfD9g46xssPq5WIHIBDAnKcZH7jNqBUc9o1akS/Ly9EVizC3rd1wTVCl9DjKwQsxELVp5EYIfB6FU3EN7exh55n15o6BmGtRsizecweTZEn6e7o9ntt6NaaUcNAwhE+8eNGkdZP3gH1ESXjg3hFfsPTp5zLI3dE4aT3kYNoE9DBBqv7Ve2GTrd4Qfs240wxyom7zv6oE+zcsb780O5Zj3Qrrzx2AK3o2fPhihX0nhc5Xbo2MCoIRw9jGPmI44hdP4eoH4vDGgtf5cfKnUyajBBUVi3zphP5CIYEpTj/GtUg5+xx//H7FXYExGLa8Zevn9dIyjurgazYebYYRy+Hoia1W3NNPkroWxZI2BOn1EzDN6+tuYpiy98i6lRUczX8ZyKV4M+GPFid1SzPy7/rdfW8ipiv7S7N3x8jH88C8M+t7BcuDH2MszKTeRhHLoEVKtZzVzm4I2yFYxXP3UGtmgjytUYEpTzAjph6GOdEPDvWoR89T7GjBmD8T9txEnVbhMbI8XuSYR+/hbeessaxmDeAWP22TNGLSQzriFqx0J888mYxOcev9wJRfilGLMW9Pcs+3t+C9+sM+aey+x7Jso+DAnKFbzKN0OfIa9i1BujzOMCfocXYuL3G82C1stbjgRXQ5fnR2DEiCTDo82NWkjGXdsxG5/+cgyBnQbj1VGqMO+TeIg944p4G/UGPzR5NJn3/GJXVFKrEeV2DAnKUr7FpAi/hstXHNMmYy/7xvHma9gzdxzGhagDvtK7SI4LNPUHjqj2/eDyCDTGDh8rAG9vo/C1BlnmZR17yJiwfWFAiZpoUjMw8aliL9mPhmdQiUCU94rCoaOxN79neQ0vL2TuXRNlH4ZEDkhIuKXXcZ5VoEplo4APwx9zt+BkTAxO7lmMaT84aggOBVCpUiBi/l6AGSsPI8pYJ+r4OiyWA9I1ahn1B0OxO9CuLrDn54kI2XESMdbzfDEOs//KXMNNubKB0nUJi43XPnn2GP7+YxrG23pVZVj+amjeIhCRK7/GtMS/awtCJo3DV78fTuwB5Y7cafvPCxgS2axAwYKIj49XU26gWDM82KshvA/Pw8Rx4/DN75Go1L4J1OkRJq8G/fFcr1qI3TADnxrrfDp1JWIqdcHQ3rerPe4CqNbzeQxu7Y/jv03EOGOdiT+HweuuwejfNDONTYB30/7of4cfjv05DRM/n4bFpyuhV1dpborAyUzer9//rqFJ/q5QRFfphcFdK7l1TUK2f/kdkGvgyXTZLPzoURQqXBhFvO19bIjcxyWjVnXl8mUEV6ig5lB24cl0LsC7WDFcvnhRTRG5H9n+5XdAroEhkc2K+/nhalwcYo09KSJ3I9u9bP/yOyDXwJDIASVLl8aFqCgewCO3Itu7bPey/ZPrYEjkANmLKlykCM6dPs2gILcg27ls77LdsxbhWhgSOaR0UBAKFSqEyJMn2fREeZps37Kdy/Yu2z25FoZEDpIfjG/JkoiOjMTZU6fMXh/Xrl1j7YJcmmy/sh3L9izbtWzfsp0zIFwTu8DmEv9GRSHm/HlciY3FtatX1Vwi1yTnQRTy8jJ7MbF5KffISBdYhgQRkZvgeRJERORUDAkiItJiSBARkRZDgoiItBgSRESkxZAgIiIthgQREWnxPIlcwjqZTi5hEH/Nne9bRnmBR4EC8CpcmCfT5TI8mc4FSThEnjpl/qg8vbxQsFAh5M+fH/ny5VNrELkWuSzH9evXcfXKFcTFxpo7Pf5lyjAscgGeTOdiTp84gajISBQtXhzFSpSAV5Ei8PDwYECQS5PtV7Zj2Z5lu5btW7Zz2d7J9TAkcoj8YC5dugQf40fkadQeiPIq2b5lO5ftnUHhehgSOUCamC5dvAgfo/rNWgO5A9nOZXuX7V62f3IdDIkcIMcgvLy9GRDkVmR7l+1etn9yHQyJbCZ7UeZBajYxkRuS7V62f9YmXAdDIptJN1fpxUTkrmT7l98BuQaGRDaT8yCkmyuRu5Ltn7fsdR0MiWwmfcblPAgidyXbP08YdR0srXIAD1iTO+P271oYEkREpMWQICIiLYYEERFpMSSIiEiLIUFERFoMCSKts9j1x3ysPRirpvdj7vvvY/Kas2qaKO9jSBBpxSJ87y5sPMhQIPfFkCDSCkbHZ1/F8x2D1TSR++Gd6bLZ/p074R8UpKYoTWLDsXbefKw5Eo14eMC3Ymvc16sJAjxk4VmsnTwZu6p1Q73Tf2KlWqdk7S7o3bkizi77CfO3RyA23gNeAfXQ7aGOqJJ46SyjprBmPuavP4joq4BHkQDUu6c3OlYrqpZL89JcnL3rCTzRomQy05RRkSdOoHqdOmqKsgvvTEd5z3UjBGZNx6pzwegy4Bk8M6AjSkaEYmrIdqOIv+HsxlAcr9QNTwx7Eo+0rYiLf8/H1AnfYsmVBuj9+DN48qGmKBm9BT8t2GWEiEP4sqmYvuYiqvd6Es88MxA9bgO2hExHKK9kTZSIIUG52sVtf2DVqQC0698NtcsURdEy9dC7az14HdqILbZDBUUb9ETPO4LhW9QXwXd0QauyRj3Boza6dauHYL+iRu2jFdrdbtQQjv2D4+YjwnHwyFUEt+6GdhV9UbRoAKrffQeqIxoHD/AYBJGFIUG5Wvg/R4Ey1VHdR80Q5YIQjLOIsJXlXkXsl18vCm9v4x9PL9jneskl2mMv44o5FYxWg5/BI01tzUb5C6oRIrIwJCgXi0XMJeOfU6vw1fvv431r+Oh3HDRmnz8bba6VYRePYuMvU/HJB9Zzz8V+tYiIHBgSlIt5wbuI8U/ljnjymWfwTJLhoUa+jtUyJAKh383C2vha6D3kZbz66qvG8ARa8Xg00U0YEpSrBQcHACeOINyjKIoWvTHguhEhnmqljDh7CAf/Bcrf3gTBxc1uUsZzGjWXOMcoETkwJHJAQsItvY5Jo2i9u1A7/37Mnzofu05dxMWLEdi/fBYmfzkXW4xCPsP8yqCsF7B/zR/YdSIaEUc24vdvZmLLBbWcsgy3f9fCkMhmchP469eN3WBKG88q6DbkEbQqEY6F0z7H559Pxa+HCqF5v95oWFytkxH5q6Bj33aoErsd87/7yuxSi+Y90byMUck4FaFWoqwg27/8Dsg18GS6bBZ+9CjyeXjAq4g0thO5n9hLl5AQH4/gChXUHMouPJnOBXgXK4a4WPtpYETuRbZ/+R2Qa2BIZLPifn7mTeDjrjh66xO5E9nuZfuX3wG5BoZEDvAvUwaxMTE8gEduRbZ32e5l+yfXwZDIAbIXVaRoUVyIimJQkFuQ7Vy2d9nuWYtwLQyJHFI6KAhFihTBhXPn2PREeZps37Kdy/Yu2z25FoZEDpIfjJ+/Py7++y/OGz8i6fURHx/P2gW5NNl+ZTuW7Vm2a9m+ZTtnQLgmdoHNJf41quIx588j9vJl88AekSuT8yC8Chc2ezGxeSn3yEgXWIYEEZGb4HkSRETkVAwJIiLSYkgQEZEWQ4KIiLQYEkREpMWQICIiLYYEERFpMSSIiEiLJ9PlEmfPnkV0dDQuXbqEq1evqrlErqlgwYLmtZp8fX1RsmRJNZdyGs+4dkESDidOnICnp6d5g38vLy94eHggX758ag0i15J47abYWFy8eBFxcXEICgpiWOQCDAkXc+zYMVy4cAF+fn4oXLiwmkuUt1y+fBlRUVHw8fFBuXLl1FzKCbwshwuRgJCmpcDAQAYE5Wmyfct2Ltu7bPfkWhgSOUCamKQGUbp0aTYrkVuQ7Vy2d9nuZfsn18GQyAFyDEKamBgQ5E5ke5ftXrZ/ch0MiWwme1FykJpNTOSOZLuX7Z+1CdfBkMhm0s1VejERuSvZ/uV3QK6BIZHN5OCddHMlcley/cvvgFwDQyKbyYlych4EkbuS7Z8njLoOhkQO4AFrcmfc/l0LQ4KIiLQYEkREpMWQICIiLYYEUTY5u3oi3pu4BjxDgFwJQ4KIiLQYEkREpMVLhWezLVu2oHLl9F+u15VJM8vEXRXRpXY0Vq45iIvxgEep+rj3wS6oXVytZIg9vga//roaB/+VFbwQUK8H+nSsgqLWrkx8BDbP+xVL951F/HVjleJV0LJHD7Qoa52cGI+ILb/g12X7cFa64Rf0RZVmPdCjZTC8ru9DyP9CEHP3cxjQWJ3xfmIZPp26E3UGPof2QY5Z8dtnY+wCoMuIPqjvacyIDceaX37F6iPRxmt6wCvwdnTqaXvf+0LwXgjQviuwftE+XKzeC6/dX8NYEIvw1b9ijvn3eqBo5ZZoXWInFh6ug6FDW8Dd76xw6NAhNGzYUE1RduGlwin3OrsZK09VxANPPIen+7ZGuYvb8Ov3yxBuFPYmo8D+9ruVuFijD55+7jk8dl9tYNtsTFsRoVaIx66532LxUV90GvQcnntyANqUDsfK72dj8wW1xs45+HbRUfje/Riee+5pDGhdEuGrpmH2povGll4VVSoC4ceOO1Y2nD10ABeN//bttV4DOHL0IFC2KqpJQFw/goVfTcPKqGDca75mHzT13Itfp4RgX6xjfYd9WLHqCup0NAKpaVlzztm1MzFtVTgC2g4w/p6h6FH2KEI38WgEuR6GBGUPn6Z4oFdTBJcoCt9KLdDvwabw/XcD1oc5FofvO4CrZdujx90V4Vu0KAJqdELTakB02EF1oPcA9hrrlmx8N+qXKYqiJYLRtEdPtK7lC8SYK+CAsS5KNsXdDQJQtKgvgps8gJ5tasM3v6SIB6pVDQaOH0e4ufZZ7N111rxb2o3XCDdCwniKyhUhdY2Lm0KxLbYKugzqgdrma1ZEi749UN+olSxYfsR8hEMA2gzsh/YNaqN2kDzyCDasj4Bvkz7o0yTY+Ht8UbFlP/SxajBELoQhQdnD0ws3XbEqqAoqGjMizziK5+C2Q/Hco01vaoYpcNPWWRW3GaFxdtOvWLw1HNGx8cZzGoV29x5oFKjWqFbFWGEDfl20DeHnYo26hwcqNjf27hsGmMuLVqqKkhcO4Ii85MUjOHA2GI27N0bwWWOeUdnAxQgcv1AUVSs73sWRY0YNI8ioVdjfeP4qqFXTC7H/hNt6KRWHr48aFWfDccyoaQRXMELJxqsIr9lFrochQTnEB8WNHev4OHUNn+sXcWRjCL79ZCzee+89cwjZ41jk4IHavZ5Gj9s8cHDpNHzx0ViM/XwaloVJ6e7gUacPnr6vNjwOLsa0rz7C2LGfYlroQVy0mrRKVkRVn7NGZSIe8QcOIDzwNtwWaMwrGY4DB4zQOXoE4V7VUMU8PnEW0ZHGPz7eZq3CzscnLTWCkvAvoUaJXBhDgnJINCKjjILds6A5FbFiGmauvYbaDw7FyFdfw2uvvYahrZIc3s3vi9qdB+Dpl1/DyBcfw33V4rHhp4lYfOMwA3xrdcKAYSPx2sgX8dh9tyF+42xM/MPRwGTs26NsWeDg0QM4cOggSlaragRASdxWuyQO7t+LIyeMJ6pk1HDMdUvC19/458plo0Zys+hzN+oQehfx73k1SuTCGBI5ICHhlg5leV9cLG461nvC2Gs39vD9S0kQnMXBsGigQn00DfKFh9oqYy/ZHnFmDaZ9/i3WnHJMengFoEbnFqhhPOsRs/3oLNZM/RTfrlYHoaV3VI1OaFHDeB6jhmAV61UrVzFqDMuwbN+NZqWSlY2wOLgBoQcvoooxbqlYLgA4sg9/29/49YPYdwDwKh+s76FUMhjlvIz3ddAKJ4eb/h435pbbvwtjSGSzggULIj4+6b6pG7iwAb/Ok2MFFxF9YgNm/7gB0cWb4s5qsrAkAoK9gH1rsHh3OKJPHcGG3ybie+mVZClZEWXzR2Dl3F+x69RFXLwYgX2L1mAffFG1mhTXJVGxbEFErJ6LX3dGGMsvImLfYqzZZ9QuqlVJLNA9qlZF8IVoRHtazUqGoCqo5hmBiLPBqFr1xmXcizZuh/peB7FwinrNc0ewZtav2Ha1Cjq1ddQ3klcRTe8MQLRRi5m90fh75L2GznT0siJz+5ffAbkGD28fv7fUeKIRLz2nxsjZYmIcXXHkFo7u4vI/m7E5phbaVQjH77/8jrVbD+O8byM8+EgHVCjkWKdElUrwPPE31m/YgI3bduN86btxb7V/sWvfNZRtUQul8xdD5bqVkf/oX1i6YiXWrd+K/ZeKo0n3fmhf3vFZFqt8OyrjH/y1PBQr127A1gOXUfyOHujXpjw8ratTexbCxd2bcapqO9xTzVfN9EXB6L/w99W6uLtZeRRRc5HPF9Xq217zr904VaQ2uj5yP2p7q3XO7sGfe4Bad9WCtE5ZipSricr5TmDjquVYu24H/vGsi7ZVYhAWXRqNG9teww3JDYfy58+PEiV40Ca7jfvoUzWWdjyZLpvJvX0jIyNRpkwZNSfvc5xMx5PIyOHUqVPw9/c3ux9T9uLJdC5AfhhxcXG4fPmymkPkPmS7l+2fAeE6GBI5ICgoCFFRUTyAR25FtnfZ7mX7J9fB5qYccuzYMbNttnTp0rydI+V5EhCnT59GkSJFUK5cOTWXshubm1yI/FDkB3Py5Ek2PVGeJtu3bOcMCNfEkMhB8oORA9hyIFsO5knPp2vXrrEZilyabL+yHcv2LNu11VGDAeGa2NyUS0ivp+joaLMJ6upVdakKIhcl50FIzcHX15cHqXORjDQ3MSSIiNwEj0kQEZFTMSSIiEiLIUFERFoMCSIi0mJIEBGRFkOCiIi0GBJERKTFkCAiIi2GBBERaTEkiIhIiyFBRERaDAkiItJiSBARkRZDgoiItBgSRESkxZAgIiIthgQREWkxJIiISIshQUREWgwJIiLSYkgQEZEWQ4KIiLQYEkREpJWvTFClBDWeKCL8kBojSl1Cwi2bEGWBfPnyqTGijAkIrqzG0o4hQRliDwbdOGWePRh040RpxZCgbGEFgfybdLDmU+ZZQSD/Jh2s+UTpwZCgLGUPARmuX79uDta4Nd8aKOOShkL+/PkT/7XGZbDWJUoLhgRlGavQl38lEOLj481/r127dtO0PSwo46wQsELBw8PD/LdAgQI3TTMoKD0YEpQlrALfCgEJBAkHGa5evYqFCxdi/vz5+Ouvv3DixAlzPmWeBEJQUBDuuOMOdOvWDV26dEHBggXN+TJYQSGDYFBQahgSlCWsmoGEgwwSDHFxcdi0aRPefvttMzgGDRqEtm3bonLlymYBRpknYXvo0CEsX74cU6ZMMcPgzTffROPGjeHp6WkGhgSFDFbNgyglDAlyOisgJAismsOVK1fMmsOQIUMwfvx4DB06VK1NWWnixIkYPnw4Jk2aZNYsChUqlFizsJqeGBSUEoYEOV1yAbFx40Z0794dv/32Gzp16qTWpOywePFi3HvvvZg3bx6aNGmSbFAQ6WQkJHjGNWnZaxFWUEgz0zvvvGPWIBgQ2U8+c/ns5TuQ70K+E+v7sb4vImdiSFCKktYkFixYYM5jE1POkc9evgP5LuQ7sYKCAUFZgSFByZICxz5YQSEFkxykppwl34F8F/aAsA9EzsKQoBRZAWF1e92yZYvZi4lylnwH8l3Id2Kdo8JwoKzAkKAUWXumVlDIeRDSzZVylnwH8l3YA4IhQVmBIUFaVqFjhYQMsufK8yBynnwHVlOTFRKCQUHOxpCgFEmhYw1SGFHuYgWENRA5G0OCUsUCKHfj90NZiSFBaZZ7C6Jo7Fm+x/i/+2E4UFZjSJBLiF79IR5vVtlx6YlqzfH46IU4bF1HMCIUH/YbjBk71bQTRczqhXwPzkSEmiZyNwwJyvViN72LLr23oNmXa3H5agIu/zUDPS+PQfPH5joK74Ce+PrkWgyrY65ORE7EkKBcb8+S8Vj3xHAMrh8ArwKAl28ldHlxBLpOn4HQI8YKx2eiV75emHncsb4RK9j6eX/UCpRaR1eMmPUNRhjj766XZevwrrHuN8vnYkQXqZkEola/CdgaYz4wFZl5LJFrYkhQrlfptq7A/BAstLf5+Bu1h4QQ9Kuopm2i549Al2/9MGb5ZVz+ewb6x4Rixk3tRXMxakoU+n93CAkXQvHSNSOAJm9Vy1KTmccSuR6GBOV6vvePw9p+hzE8UPbcR2DCrHWIiFULbxGBhdMnoPkro9DzNi94efmigVELGa6WOrTDmDcGo4G/MepdE13v74mtWw+n8bhDZh5L5HoYEuQCfNHs5RAcOhOK8d0CsWd6fwRWao8R8w+r5XaHcfgnoGGlADWdHF8U9lKjllht6iSRmccSuR6GBLkO/5po1/cljF94CFEzmyG0+4dY6I79XomyEUOCcrnD+KZjPjz+881p4Nu2K7ogBFsPqBmJKqHmI8ajTjI9iJyBIUG5XCV0faIfFvxvFGZui0CsnBsRcxih/zcG39w5HF1u6fYagHa9hxnrj8PCI7GIjY3G1snjMV4tJaL0YUhQrhfQewa2vlcTa99oh0oFHd1a3w1rh7nz/4sGSY8PGHy7GQHR7zBGNCuMwrf3xwzv5uillhFR+vAe15QsudyDddVXua/1pUuXcOHCBVSvXt31LgURG4oRhSeg4bEQ9Cur5uUBcvb5/v374ePjgyJFipj3u+a9riklvMc1kSHi58fR/rWFjm6y16IR+sEofNi7F9rloYAgyi4MCcpzAu4fhzF+c9Hz9nzIV7AhRh3ujy2T+iGlTrFElDw2N1GykmtuiomJQbVq1Xjl0VxCmpTCwsLg7e3N5iZKEzY3UZYwr7yqCh3rjmiUs+x3CLR/P0TOxpCgFFkFkAyyhxoYGIhDh1jTzGnyHch3YdUarIHI2RgSpGUVOlZAyNCgQQMsX77cnE85R74D+S6s78X+XRE5E0OCUiSFjhUSHh4e6NixI7799lu1lHKKfAfyXch3YoUEA4KyAkOCUmQPCGkDl4JJTJw40fyXsp/12ct3Id+JPSiInI0hQcmy9kytQQohKZA8PT0xYsQIDB8+HIsXL1ZrU3aRz1w+e/kO5LuQ78Rek7AGImdhSFCK7AFRsGBBs2CStvAPP/wQ9957L2sU2Ug+a/nM5bOX70C+C/lO7EFB5Gw8T4JSZD9f4urVq+Y5E5cvXzaHzZs346OPPjILp8ceewxt27ZF5cqVzUKLMk8+c+nFJAep5RiEfBcvvvgiGjVqhMKFC5uDnBvBoKC0ysh5EgwJSpEUTMkFRWysXGE11hz/448/sGzZMmzfvh0RERE8j8JJpOAPCAhAvXr10L59e/MYhISCl5fccc8r2YBgSFBKGBKUJaygiI+PNwcJiri4uJsGmWctl0CR9S32cdKzF/AyLgW/HJSWwWrqsw8yz1rOgKC0YEhQlrAKeSn8ZZAgkNqCVbOwxq2ASBoSlH5WSFhBIbUFGayagwwy31rHegxRShgSlGWsQl/+tYJC/pVwsE9bAcGQyByrZmAPCvnXalqypq1gYEBQWjAkKEvZg8IKCysU7OFgDZRxVkhYgxUI8q81LoO1LlFaMCQoW1gBkDQU7PMp8+whkHSw5hOlB0OCso09CHTjlHn2INCNE6UVQ4JyBIMhezAYKLMYEkREpJWRkOBlOYiISIshQUREWgwJIiLSYkgQEZEWQ4KIiLQYEkREpMWQICIiLYYEERFpMSSIiEiLIUFERFoMCSIi0mJIEBGRFkOCiIi0GBJERKTFkCAiIi2GBBERaTEkiIhIiyFBRERaDAkiItJiSBARkRZDgoiItBgSRESkxZAgIiIthgQREWkxJIiISIshQUREWgwJIiLSYkgQEZEWQ4KIiLQYEkREpMWQICIiLYYEERFpMSSIiEiLIUFERFoMCSIi0mJIEBGRFkOCiIi0GBJERKTFkCAiIi2GBBERaTEkiIhIiyFBRERaDAkiItJiSBARkRZDgoiItBgSRESkxZAgIiIthgQREWkxJIiISIshQUREWgwJIiLSYkgQEZEWQ4KIiLQYEkREpMWQICIiLYYEERFpMSSIiEiLIUFERFoMCSIi0mJIEBGRFkOCiIi0GBJERKTFkCAiIi2GBBERaTEkiIhIiyFBRERaDAkiItJiSBARkRZDgoiItBgSRESkxZAgIiIthgQREWkxJIiISIshQUREWgwJIiLSYkgQEZEWQ4KIiLQYEkREpMWQICIiLYYEERFpMSSIiEiLIUFERFoMCSIi0mJIEBGRFkOCiIi0GBJERKTFkCAiIi2GBBERaTEkiIhIiyFBRERaDAkiItJiSBARkRZDgoiItBgSRESkxZAgIiIthgQREWkxJIiISIshQUREWgwJIiLSYkgQEZEWQ4KIiLQYEkREpMWQICIiLYYEERFpMSSIiEiLIUFERFoMCSIi0mJIEBGRFkOCiIi0GBJERKTFkCAiIi2GBBERaTEkiIhIiyFBRERaDAkiItJiSBARkRZDgoiItBgSRESkxZAgIiIthgQREWkxJIiISIshQUREWgwJIiLSYkgQEZEWQ4KIiLQYEkREpMWQICIiLYYEERFpMSSIiEiLIUFERFoMCSIi0mJIEBGRFkOCiIi0GBJERKTFkCAiIi2GBBERaTEkiIhIiyFBRERaDAkiItJiSBARkRZDgoiItBgSRESkxZAgIiIthgQREWkxJIiISIshQUREWgwJIiLSYkgQEZEWQ4KIiLQYEkREpMWQICIiLYYEERFpMSSIiEiLIUFERFoMCSIi0mJIEBGRFkOCiIi0GBJERKTFkCAiIi2GBBERaTEkiIhIiyFBRERaDAkiItJiSBARkRZDgoiItBgSRESkxZAgIiIthgQREWkxJIiISIshQUREWgwJIiLSYkgQEZEWQ4KIiLQYEkREpMWQICIiLYYEERFpMSSIiEiLIUFERFoMCSIi0mJIEBGRFkOCiIi0GBJERKTFkCAiIi2GBBERaTEkiIhIiyFBRERaDAkiItJiSBARkRZDgoiItBgSRESkxZAgIiIthgQREWkxJIiISIshQUREWgwJIiLSYkgQEZEWQ4KIiLQYEkREpMWQICIiLYYEERFpMSSIiEiLIUFERFoMCSIi0mJIEBGRFkOCiIi0GBJERKTFkCAiIi2GBBERaTEkiIhIiyFBRERaDAkiItJiSBARkRZDgoiItBgSRESkla9MUKUENZ4oIvyQGssbrly5gsuXLyMuLg7Xr19HQsItfzIREfLly4f8+fPD09MThQsXRqFChdSSvCEguLIaS7s8XZO4evUqzp49i3PnzpkhER8fz4AgIi0pH6SckPJCyg0pP6QccWd5NiSk9iBfsNQeiIgyQsoPKUekPHFXeTIkJPmjoqJYayCiTJNyRMoTd61R5MmQOH/+PAOCiJxGyhMpV9xRngsJqRayiYmInE3KFXdsdspzISEHnIjyGtmT5eC8IaPcsXzJc11gT58+bfZOIHJ19sJMN05pJ91bLbrx1Hh4eKB06dJqyvVkpAtsnguJiIgI/ojIpVnbr/xrDda0xT5OqUsuFORfa7CmUyPrBAQEqCnXw5AwnDx5Uo0RuRZ7GNgH6wRQ618ZrPUodfYQkEFOlrP/ax+s9VISGBioxlwPQ8LAkCBXZBX49kCQQZpOrZNArXkybg2UOnsISDBY4SBNRzLY58m/1mN0GBIGhgRR9rEX+lYQXLt2zQwH+ffEiRPYvHkz9u/fb27fFy5cYECkkxT6Pj4+ZgFfvXp1NGrUCEFBQShQoIAZFPKvPSysITkMCQNDgih7JA0ICQY5aUvC4fjx45g/fz62bNmi1iZnatiwIbp164ayZcuaIVGwYMHEmkVKQcGQMDAkiLKeVRuw1x4kIKQ//ooVKzB79mzWGLKYhECfPn3Qpk0b86J+EhT2WoW1jp27hUSePOOayFVYAWHVIORkLak9/PDDDwyIbCCfsXzW8pnLZy/fgXwX1vdCDAmiHCGFkzVIYWSvQSxYsECtRdlFPnP57OU7kO9CvhP7d+TOGBJEOcQKCGlmkiE8PBw//vijWkrZTT57+Q6s78MKCnfHkCDKZvY9VCmIpHlD9mB/++03Fko5SD57+Q7ku7CanOzflbtiSBDlAKvgkcJI9lqlm+vWrVvVUsop8h3IdyHfiXw37h4QgiFBlI3sBY5Vi5ACid1ccw/5LqyQkO/I4q5hwZAgymbW3qk1SGEUFhamllJOk+/CXouwBnfFkCDKAVLoyF6qVZs4deqUWkI5Tb4LqxYhgzsHhGBIEOUQe1DExMSouZTT5LtgQNzAkEivUwvwfJ3nsSCbdvwiFz6POl9tV1O5xQUc2njI+H9utB2TsvH7yQir4JF/raBgYZR72L8T63tx5++HIZGsOGz4pA3qjFqaSwvC1EhBWQd1bEPn/m9g0rJDxl/mBJEbMPWV1/FbWprRt08yXn+S8Y5ySPhSjBveHW2Mz6DN/U9j3IrjakHOylWFz2szsGbNDPxHTWalvp8vxprFn6Gvms7NGBAODInkXFiPpV+XQs29c7HkHzXPBT07Yyd27jSGbVvw/ev1cXD0Y/hghRNiz/9uvLNiBvpWU9O51h4jzMbgTJuxmLNuHeb8pz62Dn8Pc3PJdyqFjzVQ7sLv5gaGRDIubFyKJY+PwKguZ7BgY0p7no6mjVkLp+Lpe+rg+YWRjtmX9mDumKfRWfbi7zH2XpfZn+MCtn/7Bvob69ep0xn9R83CnktqkQhfhXFPdTaWtUH3V6ZiQ4Saj0gseKkOnv7F9lz/zMXgOm9gaZSa1ingCf/bemLgY6Uwa8vuxNrE8XWTMPJ+o8ZkvpbxPuz5keR9LPjuedR5aYHxLgxJm9xkXfveuvp7t39l/I39PzPGPkN/Y9kkqzqRwucjj3n+hwWYKq9tvV6Kn2cc9swcie5t1LKFu3FGLUFcKTR97ku83L0m/H184N+kC/q1X4XI1D4vutltA/DeTKMGsGaNOSye+R76llXLRIsXMWWhY9mapXPw2aQ5aayZ/Acz1izGxNfHYc5S9fiFU/BiC7WYcgWGxC2OY8mcVejXtinq3d0XhX5YauyPpmQpJv5ZCEO/XofRd/sb08ex4PWnsKHea5hn7MVvmfoQ8OULRgHpKJoPzXwSz4U1xdhfZS//J7xS9jc8NWmDKrhlz/cNnGn/MdZtW4E5z1XGwWVLzSXG7juatr8bq/7c7ig4DZE7V2HDfa3Q1E/NSIVPkWJGgXsFV4zxuC2f4YXxQM9vVxg1jfkY23ADer+lCmXzfTyNQ3eMxbotfzjex2LrfSR1CLPkPXf6An8Yf+8fn3bFmdEvYOpeoN6Txt8441ljnWcxw1g2pJ6sn/LnI5Z+tQqFnvwa697qYPzVKa9/YcUHeGpBMEbM3oKdv45F10vbsMRcYvD0R80mRkB4qumovdiwrBX80/h5kWiG98YMQbPCf2PaMw/ggWemYZ9vawz/5D1jibgX40b2QvVrmzHtlWfx7GdrUahseq6S6o06zXyw9uNBGPTKNOz0qI5eTwxXyyg3YEgk9c9GLD0zEHdJgVa+A3reNhVLNt4owG7VFM8+1Rf1gn3gI4XR9oX44PyzeKZbWcikZ5lWeOihYpj510Fz7bLdvsL8t7uirFlw+aBes9aI/GU7zKXb/8TUKwMx8IGa8ClgPDa4FXo+dLcsMfk3uxc9Fy/BBnMP/gK2rV2KnkaY+ZhLU3YhbC4+H38QfVs2MNaPxJIZk9B0+EBHwBTwQc2efTFw8Spsk5SQ9xH+LIY+Vs/4mzzN99Gv/433cbMLuLC9CurXUX+v8Zm9PGGE8byazyyVz0c0Hf4M+tYrCx/5QFNcPxKr5s9Cq8cGoVUZY6mn8Xc80A89zWdJ4pJR6xs+BuEvPoN7y6t5lLo+fdEo8Cw2fz0Ck7acxMktk/DshHU4G9gIffvI8o64vWQMNhs7A5PWbMbmeR9h6OojjsemSRx2zh2Kjxbsx/41k7BifwxQ2ggKtZRyHkMiiT1LZwEP342a5pQPmrZthblrt6ZwwNcHhQqpUUNk+G5ErnvD0TSihs5vbUDkNcczeBa+gt3fW81NxiDNMUbBLEvNx9avDHtN3stDjQi/pmh131Js2HnBKJu3YsMvPdGqoT4iPut/4z00uz8ExV75Fi+3kfXDEb4YmPpEw8TldRoOxlSjjnElXr2PRsEIdjxNKmrirlE+mDaoO0Z+NMtsnitUoylqSqGdjNQ+H+FTxEuNpba+/B01UdkIaLsbj7ZEYuno57Dyrk/x5WM1zbChNKpSEt6XT2K//cK0C47gbLw3SlYxxmW58fmenO1YlH5xuJL0MJmxzfM7yj0YEjfZjj+/24NVo6Qt3lEgNXtuLiK/XoBV6WnHfugLrNupDhpbw5NSNYnD9q+fwsiwphgdouabzTFpJaHVE3PXbUXkzo2YlUpTU+KB6z+/QF9/ILhyZduPryZGzFHLE4dP0LWMWpxmnqj50CdY9PMn6FevEPbMeR7dBryLVSl1QdV+PhrpXT+pUxvw2/wOGNq/Hgsfp/CBp33nhfI0hoRN3MaVmNloLFbcVCBtwTePzcWqLWnrFVTMvzL8l27D7mSrHudxPGwP+j3UFZWLqFnxsWoE8A+uBf9th2A/LBtr7Nnb+TS5G31/WIqJy35Lc1MT/FphwPDiGDfZOuZQEv537cHGvfZXusG/gvE+jp65cQA4JVGHsEHOmfCrjHrte2LE/2ZgVKVZmLvZOnJys5Q/n1ulvL5R2+m0B4fCb/5ubnyiSpkOGL3uZbRK04dFNzl4FjGFA1G9q5oWXUsa210MzkqL335juTFV0r6c8hSGRKILWP/HJNRv3xRy+PkGTzRoNhBz5yy5qfDW8WzSAQODJ+GzL1Yh8poxIy4Sqz4ZjDeWSUFWCD4l/bFk2SocvxSHuPBV+Gz8XPNxpnp3YWChqZg6Zw8uGI+NO7wU04xAuIlPA9z10FzM+qE+mtZJe6lXtvtQPHv0A0xdJ6VtWXTo0xe7P/kcc8McBeyFvXMx8qmp2COLa9veR5zjfc6coTtwfRxLX3kdU/5UoRC1G7v3+qOUj2qD8w/G3cY6ZyKN5zGeO+XP51Ypr++PVt36YtW3U4yai/HkcRew/buJsH2iyhWc2XPcRc95yWGzZ2HzyZJo9Oh76NswEIENh+Czoc1Q8uRmzJImpjl/4O+zjuUDWjRCo+4vYmLLio7HUp7AkLBEbcDSH1qhVZ2bI0J4NjIKzT8X4M/DakaKamLgVz/h3siJeLh+HdTp+BgWFHsWL7eXAt0HrZ7/Ej0jxuHhJg3RfcxGVOkzEE2NGkasuadsPPZ/76DUshfQrH4bPPDlcSO0kh4w9jFCqyfQqQOapqdpyLMe+g7vgN8+nArpGOTT5r/4/vVSRgHfzWxW6/3pIbR6pR9qmu0xtvfRsCMeMJZVueV9KEYt5eUp/RA3+zGzC2ydftNw4eEv8fJdKsCCm6Lno+EY06YhXl8uQZLS55OclNf3afMyvuwajnF9GqJOj5FY4n8XOphLbP5ZgnHSnTj5yg2ZKuJe1cU1cZgpnVjX4bVRk7DZoxGGfz4Hcz4fgBoxKzFp1GvGEvEbRowNwRGf1hjyv8/w2bPNceXkWXMJ5Q35ygRVuuVskYjwQ2rM9Zw8eVKN5V3bv2qDKeXn4JMutwZaVjk+ZzA6Rz6bvmMBdAs5OUsu+SAXkJN7Kl++fBkXL17Eyy+/rNZwQWWNGsbxk7B+eY1Gz8FnTU5gfKdnMUvNczUffPABihYtisKFC6NQoULw8PBA/vz5kS9fPgQGpqeLb+4SEFxZjaUdaxKu5NIFXDi8ADONGs+9zbIwIK7twdTHRmLuXkcDTdw/C/D5+PN4tpmjzxc5hxQ49sE19cK4L2bi8/f6olFZoHrXN/Fiy0DE7F/nsgGRN74X52FIuJA9M7uh2aC5KPXWENydlSeEFaiJfq+3wqHx/c0mpI7PLUCp1z/GkHrsG+QsVuFj/St7ra4pBB9OWYEr9Yfgs9lrMGVkG/gfMuaNddWIuPFdJP2O3BWbm4iykXU9IGluknspx8bGms1NEyZMwMGDN04opJxTpUoVDBs2zAwLLy8veHp6ms1NEhYysLmJiLKFFDjSzi1D5crp//FS1pDvwvpe3L0WIRgSRDnAHhCyl1qvHjsE5BbyXVgHqhkUDAmibCeFjn2QAikgIAC33367WoNyinwH8l3Ym5eswV0xJIiykb2wsWoRBQoUMIcOHTq4dWGU0+Szl+/A+j6s2oTFXb8bhgRRDpACRwYrJAoWLIigoCB069ZNrUHZTT57+Q7ku7BCwvqe3BlDgiibWQWPDFZtQnrQyNCiRQu0a9dOrUnZRT5z+eyt78GqRdi/K3fFkCDKIVZIWM0bUjjJ2b0dO3Y092rduWDKLvIZy2ctn7l89vIdWN+HFRLujudJEOUQ6xId1mU65LwJuVSHNYSHh2PZsmXYtWuXegQ5U+3atdG+fXsEBwebAWEN9ppEckHhbudJMCSIcoh1k30rKK5du4arV6+aYWENEhYRERH4+++/ceTIEZw5cwaXLl1KfCyljRT0RYoUQalSpVCxYsXEXkxWKFiDdTzCCgjrsXYMCQNDgih7WGdgW7UKqVFIUEhgSEhY49ZgBYr1GIt9nG4u2GVcBqvgt5qTZJBQsJqYZDwtxyIYEgaGBFH2sQp8Gey1CgkMKxxkXAZrufU4Sp1V0FshIUEggxUU1ri1PKWAEAwJgyuHhFTN+eMhV2Nts1YtwQoDKxzs82TcGih19kLfHgRWWNjnyb/WY5Ij86WZylUxJAynT582f1RErsYq9O0hIIM9OKx51nqUOqvAl3+tILD/ax+s9XQkVEqXLq2mXA9DwhAdHW3eyIXIVdlDQBcK9nFKnb3gt4eBNVjTqZGbEPn6+qop18OQMEhvkHPnzqkpItelCwUGRMbYQ0A3npoSJUqYPaJcFUNCOXv2rNkzhCivYDA4V3qCwSK9oEqWLKmmXFNGQiJPnnFdrFixDG0ERLmVbM8cnDeklzxGyhV3lCdDQvo7+/n5ZWhjICKyk3JEyhMpV9xRnr12k7QbStVQqohERBlhNTG58nGIzMqzISEk+eULloNN0itBuq+xdkFEOlI+SDkh5YWUG1J+uGsNwpInD1wTEdGteOCaiIiciiFBRERaDAkiItJiSBARkRZDgoiItBgSRESkxZAgIiIthgQREWkxJIiISIshQUREWgwJIiLSYkgQEZEWQ4KIiLQYEkREpMWQICIiLYYEERFpMSSIiEiLIUFERFoMCSIi0mJIEBGRFkOCiIi0GBJERKTFkCAiIi2GBBERaTEkiIhIiyFBRERaDAkiItJiSBARkRZDgoiItBgSRESkxZAgIiIthgQREWkxJIiISIshQUREWgwJIiLSYkgQEZEWQ4KIiLQYEkREpMWQICIiLYYEERFpMSSIiEiLIUFERFoMCSIi0mJIEBGRFkOCiIi08pUJqpSgxhPt3bUF169fV1NEROTq8ufPj9tqN1RTaZdsSPwSMhPnz59nUBAR5QESEMWKFcN9vfqpOWmXbEh8N+Ur/Pvvv0hIuGURERG5mHz58qF48eJ4dNCTak7aJRsSEeGH1BgREeUVAcGV1Vja8cA1ERFpMSSIiEiLIUFERFoMCSIi0mJIEBGRFkOCiIi0GBJERKTFkCAiIi2GBBERaTEkiIhIiyFBRERaDAkiItJiSBARkRZDgoiItBgSRESkxZAgIiIt3nQoj5K7Ch45cgS//PILVq9ejaNHj6JChQpo2bIl7rvvPlSsWNG8WxWRs0VFReHXX3/FkiVLsG/fPtSoUQPt2rVD165dERAQYK4TERGBBQsWIDQ0NHGdDh06oEePHvDz8zPXIefLyE2HXCok4uPjsXLlSnO8devW8PDwMMfpZnFxcfjhhx/w9ddf49KlS2ruDUWKFMHjjz+Ohx56CJ6enmouUebt2LED77//Pvbv36/m3CA7KcOGDTPHJ0yYYO64JFW9enW8+uqrqFu3rppDzpSnQ+Lq1atYuHChuREK2Yi6dOmCggULmtPkIEH6/fff4/PPPzd/lAMGDECbNm3Mm6DHxMRg1apV+Oabb8wf6DPPPIOHH36YYZtGct/3UaNGmeNjxowx7xlMN5w4cQKvv/46tm/fruZkTL169TB69GgEBQWpOXTmzBksWrTIbB0Q0hLQuXNnlCpVypxOqzx7+9LY2FiEhISYG580o8gg4zJPltENUnWfM2cO6tSpg3HjxqF79+5mQAhvb28zWGW+LJf1ZH2izJLf5PLlyzMdEEKeQ55LnpMc4Tt16lQcPnw4sfyTcZkny7Jarg+JCxcuYObMmclWX2WeLJN1yPFDXbduHU6ePIk+ffqgUqVKasnNZP6jjz5qrifr88dImXX58mWn7nDIc8lzurvr169jzZo1yX4WMk+WyTpZKVeHxNmzZzF9+nQcP35czbmVLJN1ZF13d/HiRTM4q1atipo1a6q5yatWrZq5jjQ78cdImSXNwXLA2lnkueQ53Z0cXzx37pyaupUsk3WyUq4NCalGSeEfGRmp5ujJOrJudlS9cjM5HiEHqqWdMrUeItIE5evryx8jOYUcG3RmryR5Lh5vzB1yZUgcOHAAM2bMwPnz59Wc1Mm68hh5rLuSA9DSc0kOcqW2VyefV3R0NH+M5BSFCxc2u7E6izyXPKe7K1SoEPz9/dXUrWSZrJOVclVISNv433//jR9//DFDTSDyGHmsPIc7trNLQMjxBgnKQ4dS7qEWFhaGPXv2mD1IvLy81FwS0otJen41btz4pqF9+/bmMRwZZDzpcnmMPNYdyTk3DRo0QGBgoJqTcfIc8lw8j8fxuTZr1gxFixZVc26QebIsqz+nXBMSUqivX78e8+bNw7Vr19Tc9JPHynPIc7lbUOTPnx+tWrUyf2Tfffed2QMiOTJflst6sr48jiizZO9fTtTMLHkOZ9ZKXJ3syA0aNMg81ligQAFzkOOJcq5TdnQTzjXnSVgFuqSiNIVMmTIl3Xtl0m9dPkxpb7c/nzuxnychJybJ5yF7G9L9Vc6T2LJlC7766ivzAPeQIUMwePBgnieRRjxPInVyIPXdd99NPOk1veQk2f/+978oUaKEmkPO5NLnSUhh7swC3dnP5yqkwO/bty+effZZs+fXf/7zH/NkOmkOkX9ffPFFc76cP7FixQq88sorKfaeIEoPKdyHDx9unoeTXvIYeSwDInfJlWdcJ1eTsNcSRFrWcWdSk7Ku3bRp0yaz37n92k3SA+q9997DH3/8wb23NGJNIu0OHjxonjW9c+dONSdlEhBvvvmm9twedyS/Ydmhk5ML5bcsZZ7VFC9NTlLOyZnXcoZ62bJl07RTnGcuy8GQyB72pgEGReoYEukjHSPGjh2balBIQIwcOTLVc3vchYSDdDyRCyBKD8S0kO7scgHFypUrpxgWefayHJQ1JBAkGCQgJCgkMNj0RM4ihb5cyymlpidZJuswIG6Q44Zygc60BoSQdeUx8lhnY0i4OQYFZaUqVarg7bffNptEkpJ5skzWIQfpXLJhwwazA0p6yWPksfIczsSQoJuCQk6sy0wX5LxMmpek15gMbGpKOzkWJs1zcjzM0rZtW3OeLKMb5DpMmbkCgjzW2ddyYkiQSYJCDjS+8cYbKF26tJpL5BxyTo4cmJarEMvw2muvOeXEO8p6LnXTISJybXJVBDl5M6svJUHJ44FrIsrV5HpMDAjXkmxIyCWniYgo78houZ5sSJw+k/rluYmIyHVktFxPPiROn1FjRESUF2S0XE82JOR+BERElHdktFxnTYKIyA04uSbBYxJERHlJRst1zYFr1iSIiPKSjJbrbG4iInIDTm1u2rZ9hxojIqK8IKPluvaYxIaNm9QUERG5MinPnXpMQixcuEiNERGRK8tMea4NiQW/L1ZjRETkyjJTnmtD4vjxcKxes1ZNERGRK5JyXMrzjNKGhFi6dLkaIyIiV5TZcjzFkFiyjCFBROTKMluOpxgSBw8ewh9LlqkpIiJyJVJ+SzmeGSmGhJg6bYYaIyIiV+KM8jvVkAhdvgK/LfhdTRERkSuQclvK78xKNSTE1GnfqzEiInIFziq30xQSq9esw5yQX9QUERHlZlJeS7ntDGkKCTHtO9YmiIhcgTPL6zSHxF+btmDmrB/VFBER5UZSTkt57Sz5ygRVSlDjqbqtRnV8N3Uyypcvp+aQK1q7dj3Wrt+AcR9+quaQuxvx0nNofmdTNG9+p5pDruiff47h0YFPYO++/WpO5nl4+/i9pcZTFXn2rPniD/buqeaQKxr30WeY/PUUNUVk7Dis22DsMubDPZ07qDnkih4fMgxbtm5TU86RrpqE5f77uuHLCdwLdVUBwZXVGNHNIsIzd+IV5Zynhj2Hn3+Zr6acJ101Ccvevfvx7/nzaNe2tZpDLiWf2nMksjGbnJqxuckVvf7maMyYOVtNOVeGQkJs2bINVapUQs3baqg55DKk7pgvH3bt2u2YJrfX58EHcE+nDihXrqyaQ67i51/m4Z0x76sp58tQc5Pd5o2rERwcpKaIiCi7hIefQKMmLdVU1khzF1gdeYNRUVFqioiIsoOUu1kdECLTISFq1mmETZud1y+XiIj0pLyVcjc7OCUkxL3dH8CPP4WoKSIiygpSzkp5m10yfOA6Ob8vWoKr167irpbN1RwiInKW/xs7Dm+9/Z6ayh5ODQmxYcNf5gl3d9zRCD7e3mouERFl1MmICLzw4khM/36WmpN9nB4SYn/YAfz55xoULFgQt99eW80lIqL0kmsxjXr9baxZu17NyV6Z7gKbmjsaN8SARx/GA73uU3OIiCg1crlvuZqrMy/WlxFZHhKWli2aYeCAh3Fv13vUHCIiSkruKCc3DHLW/SAyK9tCwtKubRsjLPqjY4f2ag4REf2xZJl5T2pn3HLUmbI9JCwVKpRH29Z3oV27NgwMInJLEgyhoSuwfOWfOHr0HzU3d8mxkLALDAhA27atcF+Pbmh1Vws1l4go71n15xr88ut8LF++yuy1lNvlipCwK1HCD40aNkDp0qVQulQplCrlb46XMsYd8/xRtGhRtTYRUe5x8eJFnD4TidOnz+DMmTPqX2NajW/eshXnzrnWZYxyXUgQEVHu4bTLchARUd7DkCAiIg3g/wHnkkU6ApxHKQAAAABJRU5ErkJggg==;" vertex="1" parent="1">
                    <mxGeometry x="23" y="137" width="393" height="841" as="geometry"/>
                </mxCell>
                <mxCell id="3" value="" style="shape=image;verticalLabelPosition=bottom;labelBackgroundColor=default;verticalAlign=top;aspect=fixed;imageAspect=0;image=data:image/png,iVBORw0KGgoAAAANSUhEUgAAAYIAAANNCAYAAACa23nBAAAAAXNSR0IArs4c6QAAAARnQU1BAACxjwv8YQUAAAAJcEhZcwAADsMAAA7DAcdvqGQAAGzuSURBVHhe7d0JnE3l/wfwzxjGYDDDMDPGzmTNHlmyy1ZUKolCflFRSkqLSlG//PNrES1aUCFlVIookbJnz75vw2DGWAZjGPM/33OfM3NmzHJnMffeeT7vXidnu8vcc+/zeZ7nbF5B5aokgoiItFVA/UtERJpiEBARaY5BQESkOQYBEZHm3DMIvI23VcIf8PJSM4iI6EbJPAgKF0aBZ15HgQFPqRnO8WreDgWefwso6ueYrnkzCgx/LWk6I143Ges+9SpQqoyaQ0REN0qmQeAVWhlepcoC5asApY1/80Dijs24Nm4EEH1SzSEiohvF2694wBg1nqYCLToAly6a3TReF84j8dhhxwKjZl/giReBs6eBqJPwMkKiwMhxwMljKHBbZxTofj+8ivujQNPWwJZ/gGLG+jVuhldYbRR4eKi5DuS5ok44ns/GbD08bjz3to3Ga18AyoagwLDRKHBvfxRo2xU4fw6IOKTWJiKinMi4RWAU9l416yFx2wYk7t4Kr4a3moGQmWs/fI1rsz83QuMQEv77PBKtmn2ZICTu3YGEZwfg2uY18Gp/B1CwoGNZBgr07IvE/bscj/t5Ngp0MB7nX0otJSKinMgwCLyqhAE+hZG4byew818klgmGV0gFtTTrEiMjkPjPciMpEoCjBwE/P+P5fdXSDFyJh1dgEBBQGokr/zDC5TngjNESISKiHMs4COrfgsTjR8xCNzHyCLwuXYRXjZvV0rxzbc5UJJ47C+/n3oL3f6fAq2kbtYSIiHIq/SDwLwWv6nXg1aAZvN+fAe+3vwAqVgUaNDWPJDJJN5FXpvubcy72PBJnfIyEFx/FtW8/g1enHnm245qIKL9LtxQvEFYHideuIWHsM0h4uq85XJv4BrxKBphHEiE+Dl4JCfCqVd9x3H/dRvAqWkw92pBwzfifBIWT5wIUL5kcMHbFS6DAqLcd+xMKGM91jdfIIyLKTekGQWLdxsCebSkO4Uw8vA+JJyPhVd9oFVy9imu//wSvRi3gPWG68e+tSDwTo9Y01t273dy/UGDUfzOvvRsB4D1gOAp0ulvNsDl/Dolzv0KBVh3N1ynw4GAk/j6Ph5YSEeUSt7wMtVeDW1Gg271I+Ogt7hQmIrrB8qCDP2vMM5L7D8U1OYfgbHILg4iIbgzemIaISHNu1yIgIqK8xSAgItIcg4CISHMMAiIizTEIiIg0xyAgItIcg4CISHNueR5BmTKBaFC/HsqWLYOyZcqY0zJexhh3zAtEsWK26xq5kQMHDyF87o/45ptvEXni+pvuEFH2BQcFoV+/B9DrnrtQpXIlNde9XLhwASdPReHkyVM4deqU+teYVuObNm8xp92J2wRB+fKh6N61M7p164JmTZuouZ7rxMmT+PqbWZjwvw/UHCLKiZHPDsdD/fogqKznX3l4zdp1WLBgIeb/ughHj0aoua7j0iCoVq0qOnVoh44d26FVyxZqbv7SvmM3bN+xU00RUXbUrlUTSxYvUFP5y/IVK7F48VL8/sdS7Nu3X83NWy4Jgvbt2mJA/764vVMHNSf/+mX+Qvxn8BNqioiy4/MpH+GO7l3UVP712+9/YNr0GViy9E81J2/kaRC0atncCIB+xgbtquboITi0qhojouyIjHBNTdlVfpn/qxEI3xithVVqzo2VJ0FwS5NG6P9wP9zb6y41Ry8MAqKc0S0ILHPCf8T0r77BP+s2qDk3xg0Ngpo1bsLgRx/Bg33uV3P0xCAgyhldg8Ayc9Z3mPLZl9i5a7eak7tu2HkEt7Vqga+mfaZ9CBAR5ZSUo1KeSrl6I9yQILj7rjvx/exvULFiBTVHb8WL+6kxIsoqPz/3PGcor0l5KuWqlK+5LdeD4NH/DMTHk3nsvF25ciFqjIiyKjg4WI2RkPJVytnclKtB8PHk9zH29VfUFFnKhTAIiLIrJDhIjZFFylkpb3NLrgXB+rXLjSZLDzVFdiEhrNEQZVcIWwRpkvJWyt3ckCtBsGPreoSGllNTlBq7hoiyLziELYL0SLkr5W9O5fjw0V/mzUGTxo3UFKVl06Yt6NJdz3MoiHLqu2+/RuvbWqqp7Dt48CD+/NNxxu6AAQPMf51hPaZy5crm4Kzz589jz549SEhIQIECWa9zX7t2Dd7e3ggLC0Px4sXV3LStW78Bd/S4V01lXY6CYOL77+D++3qpKcrIzQ2aut0VB4ncXbFiRbF7x2azQMypdu3aJRXqY8aMwWuvvWaOpyaB8frrr5vrynhqbdu2Rf/+/c1/0wuGs2fPYvfu3ahbty6KFCmi5mbdpUuXsHXrVtx0000oWbKkmpu2774Px1NPP6emsibbXUPDn3pCuxCQL4Z8QezkizJt2rQ0vzB27dq2UWNE5KzOt3fMVghYv0v7bzOz36iQ9atUqXLdb9pe4Es5MHDgQHNI7zklBBo0aIB33nkHRYsWhZeXV5YHeZw8Xp5Hni8zUh5LuZwd2QoCuVbQi6NGqik9SABIjcL6gsmXQObJ9KFDh8wvT+qQsGt6S2M1RkTOurVZUzWWNdOnT08qrOV3mxn5Hct6sr6Qgn/q1Kk4cOAAEhMTzX9lWLp0qdmtJMslEKzQsLt8+TIKFy6MyMhIs9UhtfrskMfJ4+V55PnkeTMj5XJ2ruWW5SCQy8GOfSPjQ0RXr16N1q1bo3Tp0mYTTG7UkJElS5agefPm2LVrlzkdHx+P5cuX46mnnsL48ePNeemRdUeMGIH33ntPzXGIjo5Gly5d8O6775ob0k5eR1J2xowZak7mZGNLU1C+MPJlkWkZrOamfDlSfyHsunW93bzsNhE5R34veXXFUSnY5fctpMySQl9+01btX37nEi5CCmcJCXmMNdhJmeTr64tz586pOTkjzyPPJ8/73XffISIi4/sXSPks5XRWZDkI/jNoQIaHcx0+fNgsfD/66CNz/MqVK/j222/V0uvFxMTg888/N9ezTJo0CStXrjRPJJE/PiPyoWzbtg1r1qwxnyu1X3/91UxUOwmZkydPqinnWDuX5IshrC+NkHnyZUivz1GUKlUKw54YoqaIKDPye5HfjTOkNS4Fdkat8szI71cCQP6V55HuGavSJ79xCQir1SC/d6uFYC8LbrQdO3agd+/eaiptUj5LOZ0VWQoCuYpoZtcOOnLkCGrXro06deqYt5OUNy07O6SZIy2FBx98MCkppaY+d+5cNGvWzNwzbpEa/vPPP49KlTK/Fd3GjRvRvXt3c13ZQ28XGhpqzt++fbua49iJs2rVKvTr10/NcU6bNm2SQiAt8iVJXTNIrc8D96FL505qiojSI78T+b04Q1rp8vuTAlv+lenskt+w9TxCKoBS+5cCX+ZJoS/lgASCvE5mv3lXkXJaymtnZSkI5FLSWWX1lV28eBFNmjTBp59+mnQolOwA2bRpE3r0yN6JaBIusoFatmxpDr/99luKbqBChQrh7rvvNlsFVv+adAv5+/ubIZEVy5YtU2OO1kBatQBnvoBPPD5YjRFRejL6nUhBLLVyGTKqnGWXvfC3Wvny+5fKoMy3BleEQK1atTB79mw1lbGslNdOB4HcVMaZ+wmUK1fOLNylu0YKXymErS6bggULmiEgTS5Z9tVXX5mHYZUoUcJcnlX79++HHKtbvXp11K9f3yzk7d1A0t0kLQJpgRw7dsw8nnf+/Pno2rVrjvrvpMCXWkPqgl92GmdGdhq/9EL2DvEi0oH8PjI6uMLqrpHBXkHLTVZXsOwMlteT1oC0AqTLSJZl1B3k4+ODuLi4bJdrqcnzyPPJ895///1OV2KlvJZy2xlOB4HcWcwZkpLyQUkX0C233GIWuHIsrRwKZScbULqOZKdtdklfvwSAHF8r+xOkP1G6oSzSCpFWgXQ9yQ5p2S8g+xSk6yqrpDZgkQBIq/YvoeaMp558HN26dlZTRGSR34X8PtyBFPZWF5GQss2Z37h1hI+USRIc2T2PQB4nj5fnkeeT580qZ8ttp4JA7jHs7CFJUtu/6667sGXLFnOQMJAEs38Ykm4//fQTXn75ZbOgDgwMNHco16xZEytWrFBrZUz6+hcvXmzuT5DXlL3qEydONFsgqXcwt2rVytyXsHDhQjMEsnM1Q/lSWLWEtMiyrDQVv/z8Y15DhchGfg/yu8hMdrtksvM46RqSMJDHSndQRi0BOzkBTHpGnnvuObNCKl3WWR3kcfJ4eR55vuyQclvK78w4dWax3BAhqzeav3r1Kv755x/z8E85KUJ2Bss86df38/MzC2+LHOo5bNgw8wOvUaOGmgvz8E7p/nnllesPV127dq15dNLHH3+MgIAAc57sxZdgkPnSnLKeUzaihI7srJZ9FLIje+zYsahatSr69u1rPtYZ0gqQhJYmqZ2EgHxJsqNN+87YtSvlTm4i3dSoEYZlSxapqYzJ79DaN2BVzmRa5ktBLb93+zppzcuoUpcWeWxWgyQvLzGREbkh/sMDHlVTacs0CCpVqog1K7O2Q0b66h966CGzS+iZZ57BzTffbM6XglgOK508eXKKPyyrQSBpKecNSJfQoEGD1FyYH7gU1PIccg6B/Tn/+OMPzJw502w1SJdUdoLAIl8m6dqS/Q/WlywnJrz7ASb8j/dwID2NfHY4Ro4YrqboRmjWoi0OHTqspq6XaRAMeLgv3v7vWDVFN8rX38zCc6NeVlNEenhn/Jt4qF8fNUU3ygsvvoJpX6V/Am2m7ZX27fPuZAmdyY9h3o/f8zwD0oJ8z+X7zhDIG5mV4xm2CGTnzcb1K9UU5ZVZ336PSR99in379qs5RPmDXDZCzhh29mQxyj0NG7fA8VRXWbB4+xUPSD4+KpUed3Yzr/5HeevmunVwd887UKFiBfNoq6ioKFy6FKeWEnmWUqUC0LFDezwy8GG8/upLaHpLE7WE8tLuPXvw79ZtaiqlDFsEuXVDCMq5NWvX4e/lK3Ds2HEcPx6JY8ePm+Pnz8eqNYhcq3hxP/NufHKPbrk9q4zf1qolmjVlwe8O/vp7Be5/4CE1lVK6QSApvv3fnN8CjYiI3EPtmxvj9OnrL86Z7s7ixo0aqjEiIsoP0ivX0w2CsmXLqDEiIsoP0ivX0w+CMgwCIqL8JL1yPd0gKFMmUI0REVF+kF65zq4hIiJNZLlrqAy7hoiI8pX0ynW2CIiINJGNncXcR0BElJ+kV66nGwRyqWYiIso/0ivX0w0CIiLSQ7qXmKg/6E01RkRE+cXmL66/7wlbBEREmmMQEBFpjkFARKQ5BgERkeYYBEREmmMQEBFpjkFARKQ5BgERkeYYBEREmmMQEBFpjkFARKQ5BgERkeYYBEREmmMQEBFpjkFARKQ5BgERkeYYBEREmmMQEBFpzu2CoHqNSmhXP3loGqoWGIKrVLhuHhER5Yx73bP49i74uVUAfNSkKe4EpnyyBEeadMKoVoHwk3lXYxD+xkJMMVcgdxHctAVeaBoAHN+Nt8P3IFLNJ8o9fmjXvgHubRSEin4+8JGq7LUExMaew+YNOzBlySF+7zKR1j2Lb3wQlArD4HZlUEpN4mostu88gnm7YtQMm1I18ep91VChkJr28UVFfx/ERp0DAks4QsB0DgtfnY/31JQrBd/cEEPbVUWDUupLaYi/eA6bNm3F5IWe+6UM7tYF0281CnURuROdP9roGE9SD++ProNaZmrHYun0n3G5ex90CZTpeGxaEI5Rq2WcKJeUqoQXHmyGdmW91YzrxZ88hHdnrsTS02qGG2tq/MZGGRUnP+P3snftKgxdcEwtubHSCgJvv+IBY9R4CsGNOqixnKl1R0uMqFcWVYL9HUO5smharzoeal4JNYrFY8fes0YxolyKwrL1e/DzWjXsSsTN9UJQsWThlK0EXMbepXvg6nImuFV7TO5RGVWKesPbS800eBcqjNAKFdCp8lX8tSkq+e/zILF7iqN5m0CUkr/L+PAL/rUfmxyLHNrWw9DqRWH+JKOOYMzCCBSsWAWNg3zgHRuFeb8fwI5L5ppEuaAcnnm0BTqVkW9cAiIPHcCc+Wsxas4/WH3sMhKKl0CVAKMyVswfTY3v5b41EYhwPNBN1cNzvSsitKAx6uWNUmX9rv+N3SAnNi5RY8nyoEUQhJYVfOFTpCQahAagUqVA1DJq+Zb4+AQ1lo6C3o6a9lWjFTB/KzZdNcbjzmFpWi2KPFUT419qiAa+Mm4E2uot+H7fBSCgHO5rG4ZaRWV+HNb+8ANeSV2Z9hCDn+iDXsEyloAdf36Hp23fn14De2FwFcd2PLzxZzz6gyfGHXmK4C5d8FkL6TY2Wpu/LcKo5dd/38yK2e1BRg07AXtXLsDQhe78nbS3qA3xUZg17ndMU5M3kmu6htIQfHMTvNIzDNVTVvMzFX9kGx79bIubdLc0xWdvVENFGY3ah84T15pzTcaXdpHxpRWR25ag/+wTxpgf2nVpigGNghBshofx91w8h39Wr8QbfzpCLalwjTuB8E0+6CzNxvgTmPLWEoQnPT7QeLyjaSyPX/HnSry92haKRvN5cM966FzBD35S25D+06ijmP7DSswzq0i2ADNq8uHnA9C5krGuGbZGE3WdrYlq+ztiD2xEr6k7zXGgEsY+3wJNzb46I6Dfn4/3jKZ4cjik7LqrfmsLjGpbHhWNlpMpLhabNmzBe2bXme25Thqf4yTH52iFUPLrBuHVEe3R0t8YTf15Uz7nh2eeutPsdkz5Pbxel4fuxjNhxpfb+I70N74j7tw1605dQzf+qCEpmB7qjvBX+2DRG47hszsroWIWQiDmwCFsugj4VDAKsSEpn+vnl+7G5F5GqKh18845nI5To4EV8H6XSjArz2LhQnR+dZY5OELA2Oh3t8GIFskhIHyKlkDL9u0xvlXy3g+TbxB63Wp8QWxbJ/nxyf2j8vh23eyPN5rP/ZqhVxUVAqKAN/zKVsLQh9qjV9KOGsV43+a61usU9DEK7cZ4oZqaXngCe685Rv3KBKGLYxSoVgEVrZeMPIFZGfTHSi1tfDdje1shIHz90KBFM4y9u5wxcQj7YlSrsIQfepkj9VBbvVd53XbmWDkElTBHEBPt+ExJF8bv2/w+GAXmnvRDQCzco7qaS5RM/r66qbULFqLXGKOcGBOeZyGQnhsbBDWaYPJjLdArrIRR2CSY3UAy+Pj6pOrzT1985E48PXUlPttxzpjyRnBo6ufyRfX6xus8n0ZBd0PtxKxt54yvpvBBrRYtMH1ML0wf1AoDGqqdrJZSTdC/fgnH33zRKDin/oyhPxzCYenmMuY2aFIPDWTU7mocDh84grWHYnG6WgsMbagef+YIppiP34MdRjiaj2/R2CwsG9zX2Kg1OQrcyB0bMer9hXhvtdpHUTQI93WtZC5LJl1aazH0/SWYssdKNT9Uq6dGsRH/RKhC2q8UWtZ3jDZoEpAUensP7syg1lUHL7SVprohLgbzfliI/lM3YsVpeU5vVKxfD4ONsWlHZNsafIshTLZhi0BUsL4gfiVwmwSTEYzB5rc1HocOHZIR0kYhdSBGHCKXmzPSt9r4vci/Pj5I9SukDNy4IChl1N7vNpLcqAHHHNqJtyd+hzvHGcP8E3C6d/9aDBZ+uxGRNZpilFGQWmIPbcGj8lzG0PnTdVh60iiO/YIwoF9TNFXr5IVNP83H2OUnEOlIA+PT9EFwpQroc3cX/DyiDfpY5zs0DUR19Unv3bQE0w7EYu/GlVh4IM4RaAUKObqYksRhxewf8OjU5XhlxlrsqGcVvPHYtHY5ws3HrzOfx+Rn1LCl6yhEVdPjTmDerJ3YdNr4/BZsweYzjtkBpYMcIxajcP57wT7sPX0C4fuSd9qX8q+pxoxCel+MCjtfVKwpjzdeJ0i9jrF9ths/vHQZLRirQI/ctRyTN8Yg8sBOvLFFPWeBYjAyDtgTq8KkCIKNRGxXpaQjPEx+qFDPmAop4ph37QL2ZVYYUD5zBfFmy9TXaGGaM9J3q5/jCMX4eOfLGReRrqHwMX2wyKhATu4mrWPXuWFB0KV7LTQo6ujTe/qLjepwLj8MbV7O6aSOjziGyaf9MLhDZVQsaBQmm43CzagF+1Wpg2es7pCIPXh70iosjDJaB4HV0L9bchGSF9b+tgT9x/2MUb/twdoIo2BXXSk+/uUwQLpjjPEGJa3jYeMRqyq/IvzrHxzh+O4yzFPzHOJxfpcaNbT0t/qTjNr/7cndYuPrWH+r8QNpUR7BSZNBGKzWWfSG6lcXRmA4ul6yYMkJ7FNBFxxUCcFGwDua6YaTUQjP6DC9IFV4G4Lr35n0vhe1DXS0boz/l5Js2WeEqdm6MVp8ITVxW5D8vQnYq1oKFUPC0Mv6DM7FgnsHdHMMR8zKjA8qVbH6LdPWJUxVImIv5MkRONlXDw82Ut2/RgWyeqM6GOBY4BI3LAjahRo/XKPGuOQnW9dBi6Zon9SRnrnDR7YY/w9DfTluOD4KC8M34j2jBh4rBWLb5hiQ1BV0DO/97WhpVK9e2zHrRgstZzv7ORablq/DK58aBfvElVhqhJKpaBDa53JHpdUllnKITwog07W01jGGuASjbpVVW7DmuPp7Asugz6221s3+dc7vjLuaxvuRwXxDe7Aj2vEaASUro4IE17Vz2LzkrOP5/Y3PMcARHTEnjrj5D5xy3wlM2+loRQaENbh+n5oi+6MelR3FUonYuYXfkyy4YUFQSg6fNGpvK5JqjEF4oanqL3aKqj1bfcNnzmKW8U/k8rWYecD4SvgEotfddWRFh40ncEi6uY1ab55o2hAv9GphDkON5miS04fwttX1YSgdUAGbzlrFr490eSdp17MTPhvWHZ8Naqp2iKZt30Xr2RJweO0CRytCDY9O/R2PGi2SV1bH4ILVzX/1HH7+KHmdO8ctwDNTjcdd1/Jwzqyk7qESaNVA/QFGyG9e6BhN11kjoNRozJ7ltvdjDMb7fsb4d+gvjuULoy44RoIDHN1kp09j3r4jOCw9T74BqG6+bAIij3P/gI4iF27BErOCJa3izpj+UBP0qOHoW6heIwwD+nRXh44aTh/FdLc+dFRswcwNMYiVCty1eOzdsC1PDh1Nzw0LgrRclpprqhqhJfX8+Lhz2JfmAQKxCP9pGzadS8AF2+PznFHYW7Xh4Drt8GpraRn4oUGdOni1QfJlMqJjjgBro5KOvqleu5V5pE71hk1wb51AVCxbAhVLF3EsTMemddHqtbxR/VbjtVoFIRgBaNq6FcYP6qSOvjmBeUfUl98nAHc+7Hgdabn06dMO7w1qg2dqOBZn2Z/HkrqH/Kyjlk6eyPwSH0uSHxdQqzne71YN1Y2faoPGTfD+Q10wfmDNpJ3OkftjU/TpHj6y3fibD2HTKfUE5jf1Ag5dfy4MacFo9X+zBktPOsIgOCwMQ/t2MbsaJ/dtgj61HFceiD8Th9hSlTD21e7Z/77nES2OGjotfb4l/NAyqfvmBN77KDxlrfCj/Y4C8uIJfGafL8Nbv2OKtCaMmm6krONfEn3kacTpnRg14Ts88LUtKRoGoZK0CmPzqCawbyUmb1RHDRU0/s6OLTB2yJ0Y37ue8Tc7Csv4M4fws9SaT6/D9M1qXf8KGDzwTkxWO9Kl5bNp5XosldH0pH6t29tj+htdMLZjBQQXlCOpyptHHW36fr25r0T4lHK8zqIhbTCglh98ChZDbXNnb3ZsS+4eMiVgx05nzpLbhrf/lK484YNatzbF5DeMz6in44Q7v6ByaGkuM2xWLTpTLI5scTwqfJdRazLHDEarMMPPifI3aW1PWmB8p45g7zlbd6icK3Muxjyn5tF3DyJSjsYrWAJdert/GLiLGxYESyOMX3WBALTvmVzrS8kPvXpWMvubYyIOZdBlsQebpRbgE4guvdLbs14Oz9wWZO6E3rt3u2NWHlj7w3w8s2AfNkWl7KOPj4vD4T078e60lbB6T9b+sAzvrjyByKTCzljv4jksXbAkzbMkU5PXGrv8GA5ftBXIV+PN1xk7aa3qDzVqTROXI3zPOcSah6Y6yOusXb4cj/6U/ePvk7uHDPEx2ORkzTxy+RIM/eVQqh9uvLnNJ0+RE+UsO7FPHd0kfYJ/71PjK6NwRL1wbEwU+321F4ulS5Zj6ASjUim1aTlfZ8x36DVhId4wLzi3EUNn73Mcmu3mYeBORw3duDOL5fDRwQ3NI4fk8NFPf7COHJJllTD47kboJVV4ozUwRQqEjI4+qdEUn/WuhooFE8zj48fO2oO9ahFCw/DqfQ0dtXCjxvDK+yt5VAmR7pLKDGNcLk8zez7esx2J53o6XWJCTiiTs36lC0SOZLFqqdb1g+Qko/CFmOzEBgpu1Qbvty+HAHXZBOu5fHxUn3WsESifZxIoRKQPtw4D9wqCG3v10ehjWLDtPIqWLomK/kVQpFABeHsbw2U5a3YvPp61HN8dVetmIvbwIczZexllSvshuETyc0m3x79b/sXYL9djBa92SUSW6Aj8HFkUbWqXQklcxpE9x7FcTj51Cydw2q88mpYrAp9EucbXBry157xadmO55uqjRESuVCMMPbAH89yqa8h1XHPROSIiV9rFEMgMg4CISHMMAiIizTEIiIg0xyAgItIcg4CISHMMAiIizTEIiIg0xyAgItIcg4CISHMMAiIizTEIiIg0xyAgItIcg4CISHMMAiIizTEIiIg0xyAgItIcg4CISHPp3qryr6ULcenSJSQmprmYiIg8iJeXF4oUKYLW7bqoOcnSDYK1q/5EXFwcg4CIKB+QIPD19UXT5m3VnGTpBsHBfdsZAkRE+YiEQeVqtdVUsnSDIDJivxojIqL8Iji0qhpLxp3FRESaYxAQEWmOQUBEpDkGARGR5hgERESaYxAQEWmOQUBEpDkGARGR5hgERESaYxAQEWmOQUBEpDkGARGR5hgERESaYxAQEWmOQUBEpDkGARGR5hgERESaYxAQEWmOQUBEpDkGARGR5hgERESaYxAQEWmOQUBEpDkGARGR5hgERESaYxAQEWmOQUBEpDkGARGR5hgERESaYxAQEWmOQUBEpDkGARGR5hgERESaYxAQEWmOQUBEpDkGARGR5hgERESaYxAQEWmOQUBEpDkGARGR5hgERESaYxAQEWmOQUBEpDkGARGR5hgERPnc0aNHMWHCBDRo0ADff/+9mkuUjEFAlA9du3YNmzdvxhNPPIGWLVviv//9L44cOaKWEqXkFVSuSqIaTyEyYr8ao9y2Zs0adOvWTU1lTYUKFVC1alUUK1YMjRo1Mmt5TZo0QfHixdUa+omLi8PLL7+MadOmqTlZY31+VapUQf369XHrrbean3GBAp5XT7p8+TJ+++03fPrpp1i1apWam+yTTz7Bfffdp6ZIR8GhVdVYMgaBC0mt7eDBg3j77bcRHh6u5qYUEBCAOnXqoFChQrhy5Qq2bduGmJgYtdRB1hkwYAAee+wxBAYGqrl6unjxIn755Re89dZb6daA69Wrh9KlS5vj0dHR2LJlizlu17x5czz33HO47bbbPCoQJBSXLl2KihUrYufOnRg7dmyKz4FBQAwCN3Xs2DEMHjw4RQ3uwQcfNH/E/v7+ao6DhMeuXbvw4YcfYvbs2WquQ+PGjfHOO++YtVqdJSYmYurUqWZBbidh27p16+sK9vPnz+Pnn3/GBx98gL1796q5DqNGjcJTTz0FX19fNcdzJCQkmIH4/vvvqzkMAko7CLiPwA2UKlUKNWrUUFMOPj4+aRY+UojVqlULEydONAsuPz8/tQRYv369Wfjt3r1bzXE/J06cwP/93/+ZNdes+Oabb8wuNWd4eXmZrajUihQpkmbtXrqFJHjnzJmD22+/Xc11GD9+vNnNcvXqVTXHc3h7e2vfQiTnMAjcgBT4ISEhaso5BQsWxAMPPIARI0aoOQ4SBtLVdObMGTXHvfz1119mGGTFqVOn8Ouvv6op50jXT926ddWUc2T/y+uvv262rOzeffdd/P7772rKszAIyBkMAg8mYXD//fejVatWao7DTz/9hOXLl6sp9yHhJF0wWSUtgYULF6qpGyssLAz9+vVTUw6xsbGYNWuW24YrUU4xCDxc2bJlzaNeUlu9ejXi4+PVlOtJv/28efMwf/58Ncc5x48fx2effaambjzpVpIWgRw1ZLdu3TocOnRITRHlLwwCDyf9wDVr1lRTyfbt22ceQeMuVq5caXaxZIW8f3lMXrdupJuucuXKaspBurP27+cBFJQ/MQjygdDQUDWWTHZuyhFG7mDHjh1m33tWTmiS4+GnTJmCL7/8Us3JO7JTOb3PlCg/YhDkA2ntfJWjiWQfgitJd5D078v5DbIT21nSJy9HFsnhs64gIZTeZ0qUHzEI8oHIyEg1lsw6+zgtcr0ZOaomraFNmzbXHUsvZJ4sS+sxMqQ+tDMqKsosyGVn9tatW9VcBzkDWGrc9sfLse3ymGXLluGuu+5Kcey7Rc7Gtj9Ghhtx7Rw5ryD1jmH5POUkrayQri05y3fYsGHo3Llz0nuuVKkS7rjjDvPzkc8tuy0NeZ9z587FoEGDzDPM5bmrV6+ORx55xDypLquH6FokCKU77sUXXzTfp7xf673L3yGHKMtJa1l5fnmvcniuPN+zzz6b9Fhptco2v/vuu83nf/jhh/Hvv/+ayyjvMAg8nBRYqS8lIDVXKbRl/0FapNCVM2plP8Lzzz+v5mZMChj58cvJbNLNk1ntWM6YLlmypHl4q7zGTTfdpJYAzZo1w0svvYRXX301aZBCXloQ0g9/5513mvNSn/j0n//8J8VjZJDLQuQ2uUbP2rVr1ZSDvGdnX0sKN9kx3q5dO/Tp08c8w7d3797m0VxfffWVWehJYSdhJ3+3FH5Z2f8gBbUUqh07dsSjjz6KS5cumZ+nPL/8e/LkSfTv3988+km65Zwln7/83d27d0fPnj2xZMkSdOrUCV9//bV51JScWCffGemuu/fee81CXXaip0c+B3l9eU8NGzbEkCFDUnxXJQzkYnj33HOPeVixkIMJJCi4PyaPyZnFaQ2Ut955553EUqVKJQ1GAZpo/MDV0vSFh4cnGjXVFI99+umnEy9cuKDWyFhMTEziQw89lPTY1q1bJ+7Zs0ctTZtRu0t87LHHUrzm6tWr1dLrGaGTaBQcSes6+7d99913Tr9GavI3yN+S1cefOnUqxechQ61atRKNgkqtkTGj8Es0WilJ26Rv376JRsGsljrIOvJ89evXT3qNgQMHmtsiM7JdjZaE+Rh5/I8//piYkJCgljoYBWyiUXhf972QQT7T9BitgKT3ZARAohH6akmy7du3m8us5+vatWvioUOH1FIHo4WTaARHYqtWrZLWsw+y/c+dO5doBGGay2UwWjrq2Si3pVXes0Xgwf755x/z7GLpU7fIoY+PP/44ihYtquZkTE5mK1OmjJpyjnQ5pT6qJj+Qrhy5BEPqQ1ylJivXHnKGtCbGjRuXtE2MILju85VDVOX5pGVgkdp8WheJs5MuJDmU9r333jNbZG+++SZ69Ohx3dnShQsXTvNkw4wcPnzYfD5rh768N3srziJHqMlzW6RrK/XnJS1RaZHKuR9GIJtdVanJUWR//PGHeaKgtG6kxWAJCgoyu6Mo7zAIPJB0DRg1O7NbwN7/Lv23UpCl9QPOTVKQpdft5KmkIDRaUmYha5GL+cm1m4YOHer0jnfpOrMfHWUPaTt5vqZNm6opB+lOS49RkYNR+086BFe2vWxv2RZpSe9kw/TIPQvs+3mMlocaS8k6z0IKa0tERMR156zIIbhSYTBq9ykCT8j+phkzZpjdQvIZSBfat99+i1deecW8xIccKCD7PCjvMAg8gBQCRlPavIaQXPdG+oal1m8VOLVr18bkyZPx+eefX3ciFKVNCi65dIXs95Br9stVRq0rwEptW649tGDBAgwcODBLR1+lrp1n1NqSQtIuvcJXHDhwwDycVoJFCmHZt5DZ+0rvZMO0SLDb9/tkdGkKKeDtf5fso5D9AemR92G/3IfsiJb9C3IWt0VeT4JY9kXIsrSuCUU3Dj9tN2U/skZ+JLKjUroTZMfb9u3bzcJg5MiRWLx4sVmYSXPd2e4gXdmPOpIaq3RzyE5PuYqrFLCyY1S6XmQHqFzdVVpW6dW40yO1W+kOkkJVAiZ1rd9O3ocz10OSq4jKzmfrEFzZcS077zOT3smGabn55pvNLjB537KTXnYYp0cCTAr37JLnlpp/Vj9bunEYBG5KCi3pO5W+YxmktmQnx7lXq1bNbEJnpcaqM+nmsT5POXon9cXlpGCSrpSs7jOxk9CWK8PK5Sjk8NDcCGe5TPmiRYvUlKOfPrdvRCTvUyoZ8r6lezEnn0Fm5Lk98bLe+RmDwE1JjUtaAFIwySCH1KXe6SbXmpedbuQcuTS19XlKrfS1114zrzhqkWP+JSxu5KU5pJtPDu+UbjxpMaQ+xyItso79cFZpDbqiNi2HKkvlRM5bkENLKf9gEHgIqbE9+eSTZreARfYRyI41uTAbZV2LFi3MfS12coy8FHZSYOcmOWZeuvGk20juJyE7fqV7xJl9OrID2i69EwVvBDlSSXYiS2jJDY/kKDX53FK3psizMQg8iJzZKvfmtddiZcebHEniTheY8xRSq37ooYeua2nJ55lbLS3ZIS078uU+yLJPR+4zvXHjRvNy3HIGdWZdRxIgWblGU26RM4HlSB5rn4fcKU8OB5WzgKVFICcLUv7BIPAweVmL1cGNamlJMH/88cdm954ckio7Yv/++28zDCTQc9K1k9EROjllP2tZbtMpO9BXrFhhdkNKS4ZH8+RP3KoeJi9qsbrJ7ZaWnEQll40YPXq0eeSRXPdHwju3dvDK+QY3IvRl34UclCChJeRYfzm2337OAOVPDAIPlJu1WAkW1vJyr6Ul53rICWhySK+EgOx8dvYQzrSktX0kCDI65yA7pAtLzkSWExXlEFK53ansVM9Jy4U8B0sAD5VbtVi5HIG9xifdDjp2MeVGS0uOqpEC1Drev0OHDilOmsoO2T6pdyhv2rTJPBM4t0h3kJw3Yd0Xun379twZrBkGgQdLrxb79ddfZ7swl5PVTp8+rab0kl5LS67BI5egyIwcgy+3CLXIDlYfHx81lX2yg9l+1q+0OuTwzdwKbOkSkutWWeSEsdx43+Q5GARuSs4mzeyHnl4tVnZSZmV/QerDEeUEpozIhdXkmPvskqDJzv2UcxpQ8plmJq2Wlhw+KTXmzFpacoSP/YY2cukFZ17TIi2KtD6XGjVqmBdxs5Owl9DODdIisP9tMp6VeyRkd3uS+2AQuCm5kJcUJJlJrxYr9wyQmqMzUl9JVK4Nn1ahJ91GEgDy3FLbtctKIS33Qkj9/HJEjVxnJiOp7xomhzjKhcuc3S8in6kz0mtpyeUnslJAytVE03tNuQmPXDfKfkKZ/Zo9stzqYpLPWu5rkLpVICfEZXTdfnmvqVsyMp1ZBUPed1o3JxKy3eSzsJ/gJpfnsD4XWS5dlORZGARuQGpkqQs5qUk6e5hgWrVYKUTkCJD0ftB2ctE6e5+wXH5BDheUnZLyHqS2t23bNvNOW1LwSldJ6mvoyKWIpfCSgiB14ZP6HsByOOKff/6Z9PfJUTbTp0/HLbfcYk5bUt83WC6zYLVW5DOT49wLFSpknoWdmtSuU1/N09nPM6P9BdLaSi8MUl87SFoScuSQ/X1IeM2cOdO88Yv8Dfb+f9lW8hnK+nImuQSmRY7nt1/+WcgOabkonv2ztMjzyCUuZDvayWcoLQkJHQkR+VvkKqv2/URSkZDLTci+CCs0pLUjlQC57LVcAM9eeZD9FfIYeU0JJ7kRT0bkO5KVQKUbj0HgBuQHn/pOUvJjcqZf2pJWLVYKIjn5J62Cwq58+fLmXcHspMCTcJDrwsgF2lq3bm0WUHIdHTmePDWpzUsXhnVrSnuXiASBLLOTI2u6du1qXmlShi5dupjXTrKTYLMHjhREcg0muaOVvB85uUmuEpr6kthSeG3ZsuW6S0BLwSaFrzPSamnJ840ZM8YsYKXQS03eb+ouHAlImWf9nRIUcnbuG2+8YQa1/ZBSqUnL2buyvlw1VHbaWuTaPHIop1x+2k4+6169epmfnwS0PLd8D+QENvlb5UgyO6kgyGcn5zdIKEjIyz4B2bFtJ98dmSfPK6El71vOLpa7xMlnUK5cObWmo3Ui71W2sQSzbBM7CW97GMp2kP0p5D68/YoHjFHjKYx8drgaoxtFCmepXcmNTFL3ucvhgVLTksJFCuLMDvGUWqzU7M+ePWueuWqRHYFySKAUjFJASjeDFMz255Nxufpk6sfaybV55MQoq7CWfRBWF4B0Wcg15+VQSTkEUQqE1O9XapBym0N7C0UKCKm5S4EoNfDUBXqJEiXMAlCCzOqDlstxSyEiR+OMHz8+RStISG1TLt8gLRdZ104u1SAFlfwNzlymQc6elfctf6f9uaRbRC5cJwEuf7u8T9m5Khf/kwJTasf2y0LIe5dtKYN8TnKmsRT4ckSQFIr27iF5PqvAT30xQXkNOaRTCm7ZTlJLt0j3mHTpSDjK5yotimeeecb8rOQ8Bovcw0BaCRJEEgbyeVjfHfnsrO4oizyXVEgknCZNmmSGg2wT2Y6p90PJ68lJaBKiQv5u2Z8k28LeTSmfmwSDXEFVWlH57d4W7m7Cux+oMZu0blsmA904cstE48ec5cEo0NUzpM/44Zu3D0zr8dYgt400fozqEcmMgiVx3rx5iffdd595m0OjwDRvobh48WJzmZ1R6Ju3Ivzss8+uuxVjeuQ2kEaYJBq1fPP55bmNQtW8dWN6jJZF4t9//53Yr18/8zHyWKMgTTRCS62RaN72Um5/mNbfmtGQ3udgJ+/tk08+SfPx9sG+beR2kl988UWi0coyl2X0ORrhaN4a0/o8jGDI8POwGGGTaNT+E++6666kW1LK68k8WWaR9yW3n5TtJd+NjJ479faXQcbl1pvyN9nJtjQC3FxH3oMR1ilumSmvZ/98MhpkXco7aZX3XvI/lQkpREbw5tFERPlNcOj1FzrkPgIiIs0xCIiINMcgICLSHIOAiEhzDAIiIs0xCIiINMcgICLSHIOAiEhzDAIiIs0xCIiINMcgICLSHIOAiEhzDAIiIs0xCIiINMcgICLSHIOAiEhzDAIiIs0xCIiINMcgICLSHIOAiEhzDAIiIs0xCIiINMcgICLSHIOAiEhzDAIiIs0xCIiINMcgICLSHIOAiEhzDAIiIs0xCIiINMcgICLSHIOAiEhzDAIiIs0xCIiINMcgICLSHIOAiEhzDAIiIs0xCIiINMcgICLSHIOAiEhzDAIiIs0xCIiINMcgICLSHIOAiEhzDAIiIs0xCIiINMcgICLSHIOAiEhzDAIiIs0xCIiINMcgICLSHIOAiEhzDAIiIs0xCIiINMcgICLSHIOAiEhzDAIiIs0xCIiINMcgICLSHIOAiEhzDAIiIs0xCIiINMcgICLSnFdQuSqJajyFyIj9aozyypX4eJyNicHFCxcQd/GimkvkeQoWKoRCxiD/lixVCkWLFVNLyNWCQ6uqsWQMAjdwMTbW+LwjzPGifn4o7OuLwkWKmNNEnujq1atIkOHKFfP7LdOly5ZFyYAAtQa5CoPADUkLIPrkSRT390ex4sXVXKL85cL58zh/5gxKGN/zwKAgNZdcIa0g4D4CFzpz+rQZAsEVKjAEKF+T73eZkBCcM8Ig6sQJNZfcBYPARWQ/wOlTp8wQINKBd8GCSWEg3UXkPhgELiK1ooDAQDVFpAcJA/neW/vEyD0wCFzgXEwMkJjIHcKkJfneFzQCQVrF5B4YBC5wwWgWF/HzU1NE+pGDI6K5r8BtMAhc4NLFi2wNEJHbYBAQUZ7zLlQIV65cUVPkagwCF7hq/ACkj5RIV/L9l98BuQcGARGR5hgERESaYxAQEWmOQUBEpDkGARGR5hgERESaYxAQEWmO9yNwgd1bt6J81euvCZ5fRS2bhElLy6D3mN6opeYh6i9MmrQF9YYNQ2t17b3YXYswe/4/OHLuKlDQFyF1u+P+HjcjIKm6Eocjy8Ixd8UexMQbq/iHocMDvdE82HFOhvk6/1ZFj5uOY8HqI/BvMwwP4FvztXs8EoIdc/7CHuO5CxatgFse6IvOFX3Nx5nO/It5383HlmNxuFqgIAKqdsD9DzRHiPnUUfhr0iRsqdkLjSOX4I/9MTCeBYH1eqLvHVUQtWgGwjceR9zVgvAt1wi9Hu6GMNtTx/w7D9/9ugXHL8prh6BRz77oVoOXGDm6fz9uqltXTVFe4f0IyH1FLsIXs1bhap2+GD5yJIb0qgdsCcen8w+oFaSgn44vlkWh/B1DMHLkEHQLOoJFU2ZjQ5xaQZxeiwW7y6DD3b3QuZa/mrkDC+YcR9X7h2LkY73RqMQRrJr5G/ZcU4vjNmDGxHBsL347BhmvPfyRDgg8tgiffv+vUeAni1q5CIer3YOhI4ZjUKcqiN1kvL93P8GCy7eg7+PG4x5ugTLG68/4IflxcTtm49Pw7fBtJn/XcPStD6yd9QUWHVUrELkBBgG5hahdRi3faC+07lwFAX5+CKnVDb3uaoqwIldhXrk+di3mLzuOkE6D0KteCPz8jJp1715o5LMHK9dEmc9h8mmE3k/0QPObb0ZYWevs7RB0+I/RcigfAL/gWuh2eyP4xh3G8dOOpXE79uC4n1GT790IIcZrB5Rvjs63BAC7tmOPYxWT3y290bt5BeP9BaBC855oX9F4bMGbcc89jVChtPG4qu1xe0Ojpn/oAI6YjziCJT/vABr0Qv828ncFoEpnoyVSLgarVhnzidwEg4DcQmCNMAQYNfffZv+FHZFxuGrU1gPrGWHQMQxmJ8qRAzhwLQS1brJ1qRSogvLljRA5eUrNMPj527qSLP7wL6FGRQl/x3Mqvg17Y+SIHgizP66AtxpJ5lvUfqFAP5g3lfMpAvvcIr6+RjpcgtlIiTqA/ReBsFph5jIHP5SvZLz6iVOwxReRSzEIyD0Ed8aQRzoj+OxKhH/yNsaNG4dJ36/FcdXHEhcrRetxLPlwDMaMsYZxmLfXmB19ymhN5MRVxGxZgC/eH5f03JOW5kIxfTHWbM38O8v+nsfgi1XG3NM5fc9EuYdBQG7Dt2Jz9B78Aka/Otrspw84sACffrPWLEx9/WTvaxi6PT0SI0emGh5uYbQmsu/qltn44McjCOk8CC+MVgV276Td2tlX1M+o/weg6cNpvOcR3VFFrUbkagwCuuH8S0gxfRWXLjumTUZtOXkf71XsmDsBE8LVTlY5akf66ZsFAgdVf3toRYQYYweOFISfn1HAWoMs883ZlVz37NoDlKqFprVCkp4q7qJ9D3Q2lQpBRd8Y7D8Ul/I9y2v4+iJn75oo9zAIXKBgoUK4etV+PEr+VrBaVaMQ34Pf5m7A8dhYHN+xCNO/ddT0HQqiSpUQxP47HzOWHUCMsU7M0VVYJDuBa9Q22gGGEregfT1gxw+fInzLccRaz/PRBMz+J2edLBXKh8ghQVhkvPbx6CP497fpmGQ7WinbCoShRcsQRC37HNOT/q4NCJ8yAZ/8eiDpyCIiV2MQuIAEQYJO12Iv0Rz392oEvwPz8OmECfji1yhU6dAU9lv3+zbsi+G9aiNuzQx8YKzzwbRliK3SDUPuu1nVnAsi7J6nMahNII7+8ikmGOt8+sMe+N42CH2b5aRjCPBr1hd9bwnAkb+n49MPp2PRySro1V26hiJx/KRjnewKvG1Iqr9rCc5U64VB3ato3SK4fOkSfIsWVVPkajyhzAWOHzmCgj4+KGYedkKknwvnz5s3pgmRw74oT/GEMjdRMiAA58+cUVNE+rkUG2v+Dsg9MAhcoKifn9k9JM1jIt1IawBeXiharJiaQ67GIHCRwLJlERMVpdVOYyL5vktrQL7/5D4YBC4irYIS/v6IOn6cYUBakO/5mVOnULJUKfP7T+6DQeBCgUFBSWFgNpeJ8inpBpXveYmAAO4bcEM8asgNnI2JMQc5iqK4EQwFCxZE4SL2K9gQeRarlXvRqOBcjHWcMRJcvjz3C7iBtI4aYhC4EfnBSCBcMQIh7uJFNZfI88jBEKJI0aIoJt2gbAW4DQYBEZHmeB4BERFdh0FARKQ5BgERkeYYBEREmmMQEBFpjkFARKQ5BgERkeYYBEREmmMQEBFpjkFARKQ5BgERkeYYBEREmmMQEBFpjlcfdSOXL19GVFQUYmNjceHCBTWXyPMUKlQIPj4+5hAYGIjixYurJeRqvAy1mzp//jwOHjxojvv5+cHX1xdFeGMa8mByYxoZ5N4aUrGR8XLlyqF06dJqDXIVBoEbOnXqFCIjI+Hv789aE+VbUtk5c+YMSpUqhdDQUDWXXIH3I3AzVghUqFCBIUD5mny/Q0JCcPr0aURERKi55C4YBC4iNSQrBIh0IPfitsLg3Llzai65AwaBixw7dszciUakEwkD+d4fOnRIzSF3wCBwgejoaCQmJnKHMGlJvvdyVJG0isk9MAhcQJrFxYoVU1NE+ilZsiSOHz+upsjVGAQuIIfTsTVAupNWMbkHBgER5TnpGoqPj1dT5GoMAheQk2xkpxmRruT7L78Dcg8MAiIizTEIiIg0xyAgItIcg4AoD0Uv/xRvfboC0WqayB0wCIiINMcgICLSHC9D7QIbNmxA1arXXwo2P5MukU+3VUa3OmewbMU+XEgAvMs0wB33d0OdkmolQ9zRFfjpp+XYd1ZW8EVw/Z7ofXs1FLOqLAmRWD/vJyzeFY2Ea8YqJauhVc+eaFne11oBkRt+xE9/7EK0HJ1YyB/VmvdEz1ah8L22C+H/F47YjsPRv4k6s/vYH/hg2lbUHTAcHco5ZiVsno3x84FuI3ujgY8xIy4CK378CcsPnjFe0xu+ITej8z22970rHG+FAx26A6sX7sKFm3rhpbtrGAviELH8J8wx/15vFKvaCm1KbcWCA3UxZEhL6H5l/v3796NRo0ZqivIKL0NNrhW9HstOVMa9jw7HE33aoMKFTfjpmz8QYRToJqNQ/vKrZbhQozeeGD4cj9xVB9g0G9P/jFQrJGDb3C+x6JA/Og8cjuGP9UfbshFY9s1srFeXrUnYOgdfLjwE/46PYPjwJ9C/TWlE/DUds9ddML7t1VGtMhBx5KhjZUP0/r24YPy3a6f1GsDBQ/uA8tURJiFw7SAWfDIdy2JCcYf5mr3RzGcnfpoajl1xjvUdduHPvy6j7u1G6DQrb86JXjkT0/+KQHC7/sbfMwQ9yx/CknXcO0Duh0FAead4M9zbqxlCSxWDf5WWePD+ZvA/uwar9zgWR+zaiyvlO6Bnx8rwL1YMwTU6o1kYcGbPPrVzdS92GuuWbtIRDYKKoVipUDTreQ/a1PYHYs0VsNdYF6WboWPDYBQr5o/QpvfinrZ14F9AksIbYdVDgaNH4bgifjR2bos275qV/BoRRhAYT1G1MqTNcGHdEmyKq4ZuA3uijvmaldGyT080MFoX85c67irnEIy2Ax5Eh4Z1UKecPPIg1qyOhH/T3ujdNNT4e/xRudWD6G21RIjcCIOA8o6PL6wOHFO5aqhszIg65SiCQ9sNwfCHm6XoMimY4htaHTWNYIhe9xMWbYzAmbgE4zmNgrlHTzQOUWuEVTNWWIOfFm5CxOk4ow3hjcotjFp6o2BzebEq1VH6/F4clJe8cBB7o0PRpEcThEYb8+Q20RcicfR8MVSv6ngXB48YLYVyRuvA/sYLVEPtWr6IOxxhO/qnJPzt9xaKjsARo8UQWinl3bh8i6b4BIjcAoOAXKg4ShoV5IR4damBaxdwcG04vnx/PN566y1zCN/hWOTgjTq9nkDPmt7Yt3g6Pnp3PMZ/OB1/7Em+0b933d544q468N63CNM/eRfjx3+A6Uv24YLV/VS6MqoXjzYaBQlI2LsXESE1UTPEmFc6Anv3GsFy6CAifMNQzdxfEI0zUcY/xf3M1oFd8eLO1OxLI7CUGiVyYwwCcqEziIoxCm+fQuZU5J/TMXPlVdS5fwhGvfASXnrpJQxpnWqXagF/1OnSH0889xJGjXgEd4UlYM33n2JRcrc//Gt3Rv+ho/DSqBF45K6aSFg7G5/+Zt0eMRTlywP7Du3F3v37UDqsulHIl0bNOqWxb/dOHDxmPFEVo6Virlsa/nLvoMuXjJZFSmdOJ7cF0ncBZ3kjLvIADAIXkCsvXr16VU1pJD4OKfavHjNq30ZNPbCMFPbR2LfnDFCpAZqV84e3+mbGXbQ94tQKTP/wS6w44Zj09g1GjS4tUcN41oNmX080Vkz7AF8uVzt+5aijGp3RsobxPEZN3yq6q1etZtT8/8Afu5K7gEpXNQJh3xos2XcB1YxxS+UKwcDBXfjX/sav7cOuvYBvxdD0j/wpHYoKvsb72pfy/rwp/h4iN8EgcAEfHx89r7x4fg1+mid99xdw5tgazP5uDc6UbIZbw2RhaQSH+gK7VmDR9gicOXEQa375FN/I0T6W0pVRvkAkls39CdtOXMCFC5HYtXAFdsEf1cOkSC6NyuULIXL5XPy0NdJYfgGRuxZhxS6jlRBWLanQ9q5eHaHnz+CMj9UFZChXDWE+kYiMDkX16t5qJlCsSXs08N2HBVPVa54+iBWzfsKmK9XQuZ2j3ZC2ymh2azDOGK2R2WuNv0fe65KZjqOXCJcuXeLNmdyIt1/xgDFqPIWRzw5XY5TbrFv0FS5c2PxXB5cOr8f62NpoXykCv/74K1ZuPIBz/o1x/0OdUEl9DKWqVYHPsX+xes0arN20HefKdsQdYWexbddVlG9ZG2ULlEDVelVR4NA/WPznMqxavRG7L5ZE0x4PokNFOdYTKFH1ZlTFYfyzdAmWrVyDjXsvoeQtPfFg24rw8TJXMZK4MC5sX48T1duja5i/mumPQmf+wb9X6qFj84ooqubCyx9hDWyv+c92nChaB90fuht1/NQ60Tvw9w6g9m21Yb8LddEKtVDV6xjW/rUUK1dtwWGfemhXLRZ7zpRFkya219BQXFwcvLy8EBAQoOZQXpnw7gdqLBlPKHMBCYKDBw+iQoUKak7+5zihjCdSkUNkZCRCQ0NRvLj9UCvKCzyhzE3Il1+6h6R5TKQbqQhJa4Ah4D4YBC5Srlw5REVF6bnTmLQl33fZdyPff3If7BpyoYiICJw+fRohISG8dSXlexICUvmRM7nLlCmj5lJeY9eQm5E+UvlRHD9+PGkHMlF+JN2g8j1nCLgntgjcgNSSoqOjER8fD39/f7N1UKRIEbWUyPNYXZ5SwYmNdVwIqnLlytwv4AbSahEwCNyI/GgkEC5fvmz2oxJ5KjlpUvj5+aFEiRJmS4DcA4OAiEhz3EdARETXYRAQEWmOQUBEpDkGARGR5hgERESaYxAQEWmOQUBEpDkGARGR5hgERESaYxAQEWmOQUBEpDkGARGR5hgERESaYxAQEWmOQUBEpDkGARGR5hgERESaYxAQEWmOQUBEpDkGARGR5hgERESaYxAQEWmOQUBEpDkGARGR5hgERESa8woqVyVRjacQGbFfjRFlzbVr19QY5YYCBVhfo9wTHFpVjSVjEFCusBf+6Y2T8+yFf3rjRNnBIKBcZxX08q812KetcXKeVdjLv6nH7dNE2cEgoFyTusCX4erVq+ZgjScmJqZYjzJnL+i9vLxQsGBBc1z+tcatwVqPKCsYBJQrrELdKvTj4+PN8StXriSNy5CQkGAutwbKnL2g9/b2TgoAHx8fFCpUKGlclsu49RgiZzEIKMfsBbsU9lLwX758GXFxcea/ixYtwvr163Hs2DFznoQBZZ2EgK+vL8qVK4fGjRujc+fOKFy4sDlP/pUwSKuFQJQZBgHliD0EJABkuHTpEi5evIhff/0VixcvRnR0tFqbclPp0qXRsWNHdO3aFUWLFkWRIkXMMLBaBwwDchaDgLJNCn9htQKkti8hcP78eXzwwQfYvn170jp0Y0hBX7t2bQwfPhzFixc3w0BaCFbrwFqHKCNpBQG/NeQ0q+/fagmcPXsWb7/9NrZu3coQyAPyGctnLZ+5fPayDWRbWNuFKLsYBJQpKYCswQoBaQlMnDgR+/btU2tRXpHPXD572QZWGNi3EVFWMQjIKVYIyA5h2SewcOFC7NixQy2lvCafvWwD2RayTawwIMoOBgFlyF7TlO4H2Tdw4cIFLF26lAWPC8lnL9tAtoVsE9k29m1FlBUMAsqUFCxS0Mh5AlL7lKODTp8+rZaSq8g2kG0h20S2jRUGRFnFIKB02QsVKWSk+0Fqn5s2bVJzydVkW8g2kW0j28jCQKCsYBBQhqRAsQYpaKT2GRkZqZaSq8m2kG1itQasgSgrGASUKSsEZLC6h8g92LuFrDAgyioGAWVKChe5gJxcLoKFjXuxQlq2jf0if0RZwSCgDFkFi/wrA68d5H7sF/cT1r9EzmIQUKbsBYzLC5mXZmDFihl4UU3eSH0+XIQViyaij5p2V/bt4vLtQx6JQUBOsQobFjTuh9uGcopBQPlLzf54a6ZRk1+xwhwWzXwLfcqrZaLlCExd4Fi2YvEcTJwyx8kWxouYsWIRPn1lAuYsVo9fMBUjWqrFRB6MQUD5SHO8NW4wmhf5F9OfvBf3Pjkdu/zbYNj7bxlLxB2YMKoXbrq6HtOffwpPTVyJwuVDzCXO8UPd5sWx8r2BGPj8dGz1vgm9Hh2mlhF5LgYB5R+9+6BxSDTWfz4SUzYcx/ENU/DU5FWIDmmMPr1l+e24uXQs1s94ClNWrMf6ee9iyPKDjsc6JR5b5w7Bu/N3Y/eKKfhzdyxQ1ggDtZTIUzEIKP+oVhp+l45j93w1LeYfRHSCH0pXM8ZlOaJwfLZjUdbF4/J5NWrxBnzUKJGnYhBQPlccPkZhTUTpYxBQ/rEvGrFFQnBTdzUtupc2oiAW0XLbhN3GcmOqtH05ETEIKB+ZPQvrj5dG44ffQp9GIQhpNBgThzRH6ePrMUu6g+b8hn+jHcv7t2yMxj1G4NNWlR2PJdIYg4A8UGXcoQ4PTRpmygGgq/DS6ClY790Ywz6cgzkf9keN2GWYMvolY4n4BSPHh+Ng8TYY/H8TMfGpFrh8nDfbJ+LN6yldcoKSXMdGLnMst0WMjo7GiRMnMGbMGLWGBypvtBSOHsdxNdl47BxMbHoMkzo/hVlqnqeR7REUFITSpUubN7WXG9rLzex5I3tKC29eT9kmhYo1eK5emPDRTHz4Vh80Lg/c1P01jGgVgtjdqzw2BET+2DbkSvzmUKasAsbzC5xw/G/qn7jcYDAmzl6BqaPaInC/MW+858ZA6m3iuduGXInfGsqQvYCRwdvbGz4+nnvk/PEfXkffbu3QsmVLtGzdDp0HvYvfjqqFHki2hWwTa/sI618iZ/EbQ5mSgsXLy8sscKTvOTAwUC0hV5NtIdtEto1sI4YAZQe/NZQpKVyksJGhUKFCqFOnjlpCribbQraJtX0YBJQd/NZQhqRgsQYpaAoXLmx2q5QoUUKtQa4i20C2hWwTKwSsgSgr+I2hdNkLFClopD9aDk0sUqQImjZtanZFkGvIZy/bQLaFbBPZNrKNLAwDygp+WyhTUqhIISNdEFL7LFq0KFq3bo3KlXlWrqvIZy/bQLaFbBOre4gBQNnBbw1lSAoWa5CCRmqfxYoVg5+fH/r164dy5cqpNSmvyGcun71sA9kW9hPIrIEoK/iNIadI4SLdD1aLQM5glT7qgQMHsmWQh+Szls9cPnvZBlaLQLYNA4Cyi98cypS9pikFjvRLW0Hg7++Phx56CG3atDFrqHRjyGcrn7F81vKZW0Eg28IKAWsgyipea4icYt0YXa49FB8fb15/6NKlS+Y1iGSIjY01h9WrV2P37t04ffo0rly5gsTENL9elAnZGSz9/qVKlcJNN92EW2+91QwDGSQArBBIvaOYQUCZSetaQwwCcpqEgTVIGMggYXDx4kVcuHDB/FemL1++bC6TIJDgkDCwgkQwHFKyH30lBblMWzvnre44KfSlG0j2Cci/VkuArQHKKgYB5Zg9DKzWgRT80kKw/2uFQEJCQtL6lDmrQLfO4raO1JKav/1fqxXAEKCsYhBQrrAKdSnoZVzCQMal8LfGU4cAg8A59oLdCgMZpOC3DhG1WgEybj2GyFkMAso1VsFuL+itALDG7V1C1r+UMatQl3+tLiKr0LfGrcFajygrGASU6+wFvTXYp61xcp69kE89bp8myg4GAd0w9sI+vXFynr2gT2+cKDsYBJQnWPjnLhb+lJsYBEREmksrCFjVICLSHIOAiEhzDAIiIs0xCIiINMcgICLSHIOAiEhzDAIiIs0xCIiINMcgICLSHIOAiEhzDAIiIs0xCIiINMcgICLSHIOAiEhzDAIiIs0xCIiINMcgICLSHIOAiEhzDAIiIs0xCIiINMcgICLSHIOAiEhzDAIiIs0xCIiINMcgICLSHIOAiEhzDAIiIs0xCIiINMcgICLSHIOAiEhzDAIiIs0xCIiINMcgICLSHIOAiEhzDAIiIs0xCIiINMcgICLSHIOAiEhzDAIiIs0xCIiINMcgICLSHIOAiEhzDAIiIs0xCIiINMcgICLSHIOAiEhzDAIiIs0xCIiINMcgICLSHIOAiEhzDAIiIs0xCIiINMcgICLSHIOAiEhzDAIiIs0xCIiINMcgICLSHIOAiEhzDAIiIs0xCIiINMcgICLSHIOAiEhzDAIiIs0xCIiINMcgICLSHIOAiEhzDAIiIs0xCIiINMcgICLSHIOAiEhzDAIiIs0xCIiINMcgICLSHIOAiEhzDAIiIs0xCIiINMcgICLSHIOAiEhzDAIiIs0xCIiINMcgICLSHIOAiEhzDAIiIs0xCIiINMcgICLSHIOAiEhzDAIiIs0xCIiINMcgICLSHIOAiEhzDAIiIs0xCIiINMcgICLSHIOAiEhzDAIiIs0xCIiINMcgICLSHIOAiEhzDAIiIs0xCIiINMcgICLSHIOAiEhzDAIiIs0xCIiINMcgICLSHIOAiEhzDAIiIs0xCIiINMcgICLSHIOAiEhzDAIiIs0xCIiINMcgICLSHIOAiEhzDAIiIs0xCIiINMcgICLSHIOAiEhzDAIiIs0xCIiINMcgICLSHIOAiEhzDAIiIs0xCIiINMcgICLSHIOAiEhzDAIiIs0xCIiINMcgICLSHIOAiEhzDAIiIs0xCIiINMcgICLSHIOAiEhzDAIiIs0xCIiINMcgICLSHIOAiEhzDAIiIs0xCIiINMcgICLSHIOAiEhzDAIiIs0xCIiINMcgICLSHIOAiEhzDAIiIs0xCIiINMcgICLSHIOAiEhzDAIiIs0xCIiINMcgICLSHIOAiEhzDAIiIs0xCIiINMcgICLSHIOAiEhzDAIiIs0xCIiINMcgICLSHIOAiEhzDAIiIs0xCIiINMcgICLSHIOAiEhzDAIiIs0xCIiINMcgICLSHIOAiEhzDAIiIs0xCIiINMcgICLSHIOAiEhzDAIiIs0xCIiINMcgICLSHIOAiEhzDAIiIs0xCIiINMcgICLSHIOAiEhzDAIiIs0xCIiINMcgICLSHIOAiEhzDAIiIs0xCIiINMcgICLSHIOAiEhzDAIiIs0xCIiINMcgICLSHIOAiEhzDAIiIs0xCIiINMcgICLSHIOAiEhzDAIiIs0xCIiINMcgICLSHIOAiEhzDAIiIs0xCIiINMcgICLSHIOAiEhzDAIiIs0xCIiINMcgICLSHIOAiEhzDAIiIs0xCIiINMcgICLSHIOAiEhzDAIiIs0xCIiINMcgICLSHIOAiEhzDAIiIs0xCIiINMcgICLSHIOAiEhzDAIiIs0xCIiINMcgICLSHIOAiEhzDAIiIs0xCIiINOcVVK5KohpPITJivxrzfAkJCYiPjzeHK1eumNPXrl1TS4mIknl5eaFgwYIoVKgQfHx8ULhwYRQokH/qzMGhVdVYsnzfIrh8+TLOnTuHM2fO4OLFi2YQMASIKD2JiYlmOSHlhZQbMkg5kp/l6yCQDXn27FnExcWpOUREWWNVJi9duqTm5D/5Nghk48XGxprdQEREOXH16lWcP38+37YM8mUQSOEvrQGGABHlFqtcyY9dy/kyCGSnMLuDiCi3SbmSH1sF+TYIiPIL2XnJ4cYPzsqP5Uu+PHw0KirK3OtP5KnsBVN645RzcqioJb3x1Ly9vVG2bFk15XnSOnw0XwbBiRMneIgoeSyrsJd/7YPFPk7Zl7rgtw/WvLTI/KCgoHSXuzttguD48eNqjMhzWAW8VfBLZSatcWug7LMKfGuQE8bSGrfWTS0kJESNeR4GAZGbsgp2+VcKfWuQwxbt0zIwCHLOXujbBzmj2D6dXhgwCDwAg4A8iVWo2wt7CQA5XFH2dR0+fBgLFizAunXrsGbNGnNdyrny5csjNDTULNS7d++OW2+91byshOwDSB0Iwh4GDAIPwCAgT2LV8KXglxCQwl+GgwcP4osvvjADYODAgWjXrh3atGmjHkU5JZ+vDMuWLcOXX36JJk2aYNCgQahcubIZCDJICEgwWC0IS34Lgnx7ZjGRJ7BCwGoJSADI4Yn79+83a6k333wzDh06hDFjxjAEcpkU+G3btsVrr71mhoF81kOGDDE/e+sCldZ2sbZTfsUgIHIxKwikO0gKnwMHDuDOO+/E0qVLzQCgG09CQT7rsWPH4vHHHze3gWwLax9Nfg4BwSAgchGrlmnVOqVrSGqiUhhNnTrVrK1S3howYID5+csg28LqrrPCIL8GAoOAyIWswsVqDaxevRpr1641CyRyDdkXI/sZZVtYrYL8HAKCQUDkAlbBYg1S45QC59dffzVbA+Q6lSpVwhtvvGHuqLd3DdmH/IZBQORCVgjIIN0Q69evZ5eQG5B9BnLEUOquofyKQUDkYlYYSKGT+sQlcg0JgmPHjiUFQX4OAcEgIHIRq3CxtwqOHj1qFkLkWrINZFtY28W+rfIjBgGRC0nBYh/IveiyfRgERC6W3wsZT6fD9mEQ5Ecx+7Fmz3k14WY2T0HdZ+cjSk1SMncubOIOrsKqg/rd9U+XgGYQZEQKrbp9MWVb6jsSbcaUunUxZbOazMyJ+Xi67tOYf0JN32BRG6Zh1Jhf4MzVojZ/Uhd1P3H2D8l9R/+YgCfubmt8zm3RY9gE/BWhFlDeilqF/z3SAlXNa+pURYtH3sSCg2qZYcf3fXHPu0twRk3nmtVvGq/3JlapSXINBkGmNmPiW9Oww4PuThfY4Q38OaMPrr+0lJvZaQTW2FPo+N85WLVqDl6uuxFPjJuLo2ox5ZG4jXjzznuwoflkrDyfiMRLGzDjvksY17wv5qqN0fC5/Tg+sRv8HZOUzzAIMtUarUtMxLhvd6jptJ3fNhdvPt7FqNnWRZfH38TcnY7kiFrwNOp2GIXFxn+jOtTF0wuu7xQx15k0H4vH9EDbulOM6BFHseaTUejR1qixt+2BUTN3wN7Zc/RPoybdVS37cj6mPZv83Obz2bpf4nfOwqt91Xvr+ypmbZNncrRq+k4yRif1NZZZryvr2/+WCVicVEuXxzyNWQumma9tvV766xsu7sCs5+Xvciybv+OUWmA8LqAZnpr8HO6oGYjixQPR7M4H0fHvKESr5ZRHti7ApNWDMOzRhgj2M6Z9/VGl60iM7DoTM5YeMFdZNdZoKYxNrrcf+HkkuocZ80Jqo+87M/G/+73Qa1akuSxyVi94vboAGz/si9ohxjph3THyZ8fzZCYnj6XsYxBkqgGGvPgGSv7fOEzbqWaldnguRg1djNDHvsfWrVvx/cAyCL/3acw9bNTOu72PrX+MR0fjv/F/bMX73QLVg1L5ZCa23/Y+5qwagPqIx+ZJz2Ai7sGMxVux9YfxaLD+PrxihYjUpIftR9O3V2HDb3PwZNg+/L7Iseg65//CO4/9gvLD1XsbXh6/9H4Hi2PqY7AxPWOYsc6wGcaywcbrGiLm4/nH1qDBi/OMeRvwTW/g0+FGSCS1iBbj078LY8jnqzC2o/G3ZLj+efz17uP4pdxIzNmwFfPe6o7Lm383n0X4BNVCszqB8FHT53euweLbAlFaTVMeqVwL3bEA4T87CnIHf9zzZSLCH6qipm02/Q99e+xA+69jcOnABoyrux3h36tllrHjEF79f9hw5BJiPmqIJT3+hwXO9ivl5LGULQwCZ1S8By+NKYkJH6TdbbF5wUScevhJDKhf3Jwu3nQwRo84hYkLstD3/shTeKxDVQQWN4rFE79j6idGbfmRZihe0FgWUAu97h2AxX9vMmv5m/+chohhQ8zX8/HxQfnbHsSDnc1nud7F8zgVVRs161rvrQ/Gftk93W6jzT+/g/PDnkT3ilI8+yCw7QPoEzATa/Y4lgPG+3q8D+qHFoe81QzXP/EX5n7bGgP7t0agsdjH+Dvuue8e81lSi988BY+NjcDIYXegvJpHeSTwHkz4uy8OjAhByM19MfLDmVh1NP0dw6t+noADb4zGs7f6w9fX12g9DMOw+9RCy3PjMLprMHwL+sK/U3f0Qjg27lXLMpOTx1K2MAicVP7eJzHy3Kt4a07qKIjC0T1RaFarmpp2KF+1AaL2HHX+6Jiivkk1Y0RGGPXuaRjUqK7Z3SJDo0enGaXlZWOh4/UaVAx1rJuZoGa45+H9eLXXE3hz0lws3nkZ5Zs2Q9UAtTwFx3OvGePo5nEMXfDqKuOvuKpWQXEULqxGM1tf/o6aVRFqfy1vXzVic2IxXhm+DG0++BgD6iR9CpSH/Fs9i/AdMVgysTtCdsxA3wpV0GHEAlzfKROJA/9GokX1NFoKdsWLIOWWNlobSd+hTOTksZQtDAKn1cKAV0bi7JgJmO/EkS2XL59TY9lUcyS+37rV7M5JGv7XHel0LGUgEK2f/wK/TXsSt1U9hzUf9MPtw2ZluPO7z6RVKV/XGAab/UZpy+r6qUWt/wXzOw5Bn/oMAZcq6I9a7R7Esx/Nx/6YGWi+tDv+9zP7ZHTAIMiKmg9i9NOnMOrdqdiuZklBWz4sEGt27FPTDqci9iMwrHw2Cm5DgFF471yLHYfVdAqBqForEBGRyTtdMxJ/YgfWbDNq6EG10LrbALz88XsYEPkm/k5z33cJBFYIxO+btsO5g6QyWT84FB137kdEjJoWCdd3OQR2HItVI1obbQ1yhQOfdYDXI3NTHhrq3x7d7wTCt6ZuEwSjVsNgHDjK28HmJwyCLPFBrYdH46lIOQYoWf1uT6HMV9Mwd6fjuJ7zm6fhw3fL4KluqlocVB5VEYGIqHjEO1PCVuyEBx7Yjokfz8V+ecqr57Fjzig88dUOs8Ct1WoAfNTryc0zjv49EzPT2VnsE7MGE4e+g1/UCWbxh3dg0876KF7UnETp0I7A0VOIMp4n3vj7mnUZgNDPJ+KTvx2dWvEn/sLER17FYnthniST9YNa454H/sLU6X8Zz28si9mMaV/ONddL4cIpbI+wHxNFealK16F48NcJGD1rIyJjjRlX43Bg6ZsY91lzDOtUy7GSTcOuI+H77gR8sekM4uKMdX+dhEmpdxaTR2EQZJVPLQx4/inHETaWivdg/OQG2DT2PrOf/L5PItBx9njcU1EtRy10Gh2Kub0b4XajMM9ccbR+4RuMLrMYT99ZF3Ub3IcPD7fGyHtrOfYj1ByA8WPKYPEzzdHo9nvx4Z5q6NTBfOD1jHU/ebcWNo1xvLfbh69B7c/Go0+YY3H5pvdgwLFxaNvoFfwlZbmsP/sORH3Sz7H+Y/NRYthz6JjmPgVDhusbf8eIj3HHsQm4t1Fd9Hjpd5Rp1cl8mN3RZRMwavoa5/enUO4qfw9mbByHWn+PRns5JLRQFXQfewDtv1+Al5uksU+nwbOYMSUEc+8LQJEqjTB6a230ulstI4/kFVSuSprnUEdGOHNeqnuSuwvp5SjmPtoFUcOy1jdPriOXLpCrWsplji9fvoxLly7hwoULaNmypQde1uAAvri9KiLfSMTLt6pZ+YBcEnzFihUoVqwYihQpgsKFC8Pb29u8T0G5cuXUWp4nOPT6YwbZIvBE26Zh0ItzscPsronH0Z8/xMSYp9Ds+lY8Ue5b9z90ePgLbDSbcHE48PVojD41Du0bmEvJAzEIPFGdB/Hybfvx4SNyjZ7b8cSiMhj9wWDwoBvKE02GYlLXHRjdLsSoNVdB9+9DMPmHl9E8jV4k8gzsGiJygbS6hi5evIgWLVpoc8VLdyddQytXrkTRokXZNUREN5YUONYtKkNDQ3HwoO2yn+Ry9u2TXzEIiFzIKmSsQWqaDALX+/PPP3HLLbdct33yKwYBkYtYBYv8K90NMpQtW9YshMi1JIxlW1jbxb6t8iMGAZGLWUEg/c8PPfQQvvzyS7WEXOXVV19Fp06dkvYJ5NcAsDAIiFzI3hqQQqdChQoICgrCmDFj1BqU16ZNm4aGDRuaXUNWEOT3MGAQELmAFCr2QQqaggULolChQnj22Wfx66+/MgxcQLrlRo8ejXbt2pnbQraJFQL2Ib9hEBC5kFWwWCEgQ6VKlTB8+HCGQR6Tz7pfv35mEDdr1ixpe8i2ya8BYGEQELmIVbhYXQ/SDSE3GpLj1StXroynn34aGzZsQMWKFc1CijuRc5fsEJZBPlvZDr/88gveeecdMwRkG8i2SN01lF/DgCeUEbmQnDxmP7nsypUr5hVl5SQzazhy5AhmzZqFU6dOYd26deqRlFNyzoZ89p07dza7gmT/jASANUgQSIvAvsPYCoKQkBDzX0+U1gllDAIiF7PCQIJAAkHCwAoEa1wGa7kMsr7FPk7ps9fmZdzeErO6gWSwAkAGa7k9BASDwAMwCMiTWAW5VcjLcPXq1aQWgjVuBYEVHJR9VsFuFfQyWPtprHErKGSwHmNhEHiAEydOmD8YIk9hFezyb+pAsE/LwCDIOXsQ2IfUAWAV/vYQkHE5xNc+z5NoEwRRUVFmTYrIk9jDwAqEtMatgbJPCnH7YBX6qcetde2kxSBnHXsqbYLg7Nmz5pUciTyRVcinV/Dbxyn77AW8VfBbgzUvLXI10pIlS6opz6NNEMglfc+cSXErbiKPkl7BzxDIXfbCPr3x1Pz9/c3LUnsqbYJAdqqdO3fOvLE2kadj4Z83Mir8Lb6+vmZrQLqPPFVaQZAvTyiTPjxpvsm/RJ5OCigON37IjFWueHIIpCffnlksJ4T4+fkxDIgox+RoouLFi5vlSn6Ub4NAWDt1pDlHRJQdUn6UKFHCo/cLZCZfB4GQBJeNKDt4JBisswWJiNIi3URSTkh5IeWGVCbza0vAki93FhMRUdq02VlMRETOYxAQEWmOQUBEpDkGARGR5hgERESaYxAQEWmOQUBEpDkGARGR5hgERESaYxAQEWmOQUBEpDkGARGR5hgERESaYxAQEWmOQUBEpDkGARGR5hgERESaYxAQEWmOQUBEpDkGARGR5hgERESaYxAQEWmOQUBEpDkGARGR5hgERESaYxAQEWmOQUBEpDkGARGR5hgERESaYxAQEWmOQUBEpDkGARGR5hgERESaYxAQEWmOQUBEpDkGARGR5hgERESaYxAQEWmOQUBEpDkGARGR5hgERESaYxAQEWmOQUBEpDkGARGR5ryCylVJVOMp7Ny2AdeuXVNTRETk6QoUKICadRqpqWTpBsGP4TNx7tw5hgERUT4gIVCiRAnc1etBNSdZukHw1dRPcPbsWSQmprmYiIg8iJeXF0qWLImHBz6m5iRLNwgiI/arMSIiyi+CQ6uqsWTcWUxEpDkGARGR5hgERESaYxAQEWmOQUBEpDkGARGR5hgERESaYxAQEWmOQUBEpDkGARGR5hgERESaYxAQEWmOQUBEpDkGARGR5hgERESaYxAQEWmON6bJx+TucgcPHsSPP/6I5cuX49ChQ6hUqRJatWqFu+66C5UrVzbvWkSU22JiYvDTTz/h999/x65du1CjRg20b98e3bt3R3BwsLlOZGQk5s+fjyVLliSt06lTJ/Ts2RMBAQHmOpT70roxjccFQUJCApYtW2aOt2nTBt7e3uY4pRQfH49vv/0Wn3/+OS5evKjmJitatCj+85//4IEHHoCPj4+aS5RzW7Zswdtvv43du3erOcmkIjJ06FBzfPLkyWblJLWbbroJL7zwAurVq6fmUG7y+CC4cuUKFixYYH7RhHxRunXrhkKFCpnT5CBh+c033+DDDz80f3j9+/dH27ZtzRtXx8bG4q+//sIXX3xh/giffPJJ9OvXj4HqJLmP9+jRo83xcePGmfeApWTHjh3DK6+8gs2bN6s52VO/fn2MHTsW5cqVU3Po1KlTWLhwodnKF9Ki79KlC8qUKWNOO8ujb1UZFxeH8PBw8wsmXR4yyLjMk2WUTJrZc+bMQd26dTFhwgT06NHDDAHh5+dnhqfMl+WynqxPlFPym1y6dGmOQ0DIc8hzyXOSI2CnTZuGAwcOJJV/Mi7zZFlOeUQQnD9/HjNnzkyzqSnzZJmsQ44f46pVq3D8+HH07t0bVapUUUtSkvkPP/ywuZ6szx8c5dSlS5dytVIhzyXPqbtr165hxYoVaX4WMk+WyTo54fZBEB0dja+//hpHjx5Vc64ny2QdWVd3Fy5cMMOxevXqqFWrlpqbtrCwMHMd6SLiD45ySrpuZSdxbpHnkufUnezvO336tJq6niyTdXLCrYNAmjxSwEdFRak56ZN1ZN3caCZ5Mtk/IDuHpd8wsyMvpLvI39+fPzjKFbKvLjeP9pHn4v6/vOG2QbB3717MmDED586dU3MyJ+vKY+SxupKdvnJEkOxYyqx2Jp/XmTNn+IOjXFGkSBHzENDcIs8lz6m7woULIzAwUE1dT5bJOjnhdkEgfdX//vsvvvvuu2x1V8hj5LHyHDr2e0sISP+/hOH+/Rkf+bVnzx7s2LHDPDLD19dXzSUhRwfJEVVNmjRJMXTo0MHcpyKDjKdeLo+Rx+pIzklp2LAhQkJC1Jzsk+eQ5+J5Lo7PtXnz5ihWrJiak0zmybKcfk5uFQRScK9evRrz5s3D1atX1dysk8fKc8hz6RYGBQoUQOvWrc0f0ldffWUeWZAWmS/LZT1ZXx5HlFNSi5eTFXNKniM3WxeeTiprAwcONPf9FSxY0Bxk/56cC5Qbh9i61XkEVqEt6SbdFlOnTs1y7UqO65YPTPq/7c+nE/t5BHJyjnweUmuQQ0flPIINGzbgk08+MXcqDx48GIMGDeJ5BE7ieQSZk52Xb775ZtKJn1klJ4q+/PLLKFWqlJpDucntzyOQAjs3C+3cfj5PIYV6nz598NRTT5lHVL344ovmCWXSdSH/jhgxwpwv5xf8+eefeP755zM8KoEoK6QAHzZsmHmeSlbJY+SxDIG85bZnFqfVIrDX9oUz6+hMWkTWtYbWrVtnHpdtv9aQHFn01ltv4bfffmMtzElsEThv37595tnBW7duVXMyJiHw2muvpXvui47kNyyVNjnBTn7LUuZZ3ebSPSTlnJxhLGdily9f3qmKr0ddYoJBkDfszXiGQeYYBFkjByOMHz8+0zCQEBg1alSm577oQgJADvaQi/LJkX3OkEPB5aJ+VatWzTAQPPoSE3RjSKEvhb+EgISBhAK7iSi3SMEu1x7KqJtIlsk6DIFksh9PLhrpbAgIWVceI4/NKgYBMQzohqpWrRpef/11s/siNZkny2QdcpADOtasWWMe9JFV8hh5rDxHVjAIyGQPAzm5LCeH7+Zn0hUkR2PJwG4h58m+KelKk/1Tlnbt2pnzZBklk+sG5eRMf3lsVq89xCCgJBIGsnPv1VdfRdmyZdVcotwh56zIzmC5+q0ML730Uq6cfEY553E3piEizyZn/8sJjDm9LAJlD3cWE5HLyfWDGALuJd0gkMsZExFR/pFeuZ5uEJw8lfmln4mIyHOkV66nHwQnT6kxIiLKD9Ir19MNArmePRER5R/pletsERARaSIbLQLuIyAiyk/SK9cz2FnMFgERUX6SXrnOriEiIk1kuWto0+YtaoyIiPKD9Mr1DPcRrFm7Tk0REZEnk/I8y/sIxIIFC9UYERF5sozK8wyDYP6vi9QYERF5sozK8wyD4OjRCCxfsVJNERGRJ5JyXMrz9GQYBGLx4qVqjIiIPFFm5XimQfD7HwwCIiJPllk5nmkQ7Nu3H7/9/oeaIiIiTyLlt5TjGck0CMS06TPUGBEReRJnym+ngmDJ0j/xy/xf1RQREXkCKbel/M6MU0Egpk3/Ro0REZEncLbcdjoIlq9YhTnhP6opIiJyZ1JeS7ntDKeDQEz/iq0CIiJPkJXyOktB8M+6DZg56zs1RURE7kjKaSmvneUVVK5Kohp3Ss0aN+GraZ+hYsUKag55opUrV2Pl6jWY8L8P1BzS3chnh6PFrc3QosWtag55osOHj+DhAY9i567dak7mvP2KB4xR406Jio42X+D+++5Rc8gTTXh3Ij77fKqaIjIqB6vWGFVDL3Tt0knNIU/0n8FDsWHjJjXlnCy3CCx333UnPp7M2qSnCg6tqsaIUoqMyPjkI3Jfjw8djh9+/FlNOS/LLQLLzp27cfbcObRv10bNIY/ipWqARDZm91Bzdg15oldeG4sZM2erqazJdhCIDRs2oVq1KqhVs4aaQx5D2oFeXti2bbtjmrTX+/570bVzJ1SoUF7NIU/xw4/z8Ma4t9VU1mW7a8hu/drlCA0tp6aIiCivREQcQ+OmrdRU9mTp8NH0yJuIiYlRU0RElBek3M1pCIhcCQJRq25jrFvv/HGrRESUfVLeSrmbG3ItCMQdPe7Fd9+HqykiIroRpJyV8ja35GhncVp+Xfg7rly9gttatVBziIgot/x3/ASMef0tNZU7cj0IxJo1/5gnnd1yS2MU9/NTc4mIKLuOR0bimRGj8PU3s9Sc3HNDgkDs3rMXf/+9AoUKFcLNN9dRc4mIKKvk2kGjX3kdK1auVnNyV64cPpqZW5o0Qv+H++HeXnepOURElBm5lLRcRTQrF5DLjjwJAkurls0xoH8/3NG9q5pDRESpyZ3F5KYyzt5PIKfyNAgs7du1NQKhL27v1EHNISIiudG83GPYmdtL5iaXBIGlUqWKaNfmNrRv35ahQERaksJ/yZI/sXTZ3zh06LCam7dcGgR2IcHBaNeuNe7qeSda39ZSzSUiyn/++nsFfvzpZyxd+pd5NJCruU0Q2JUqFYDGjRqibNkyKFumDMqUCTTHyxjjjnmBKFasmFqbiMh9XLhwASdPReHkyVM4deqU+teYVuPrN2zE6dPudUketwwCIiLKO7l6iQkiIvI8DAIiIs0xCIiINMcgICLSHIOAiEhzDAIiIs0xCIiItAb8PyrF/SEt6PVhAAAAAElFTkSuQmCC;" vertex="1" parent="1">
                    <mxGeometry x="575" y="137" width="386" height="845" as="geometry"/>
                </mxCell>
            </root>
        </mxGraphModel>
    </diagram>
</mxfile>